SplineFontDB: 3.2
FontName: OpenSquare-Bold
FullName: Open Square Bold
FamilyName: OpenSquare
Weight: Bold
Copyright: Copyright (c) 2020, John Kline
UComments: "2020-10-14: Created with FontForge (http://fontforge.org)"
Version: 001.000
ItalicAngle: 0
UnderlinePosition: -102
UnderlineWidth: 51
Ascent: 819
Descent: 205
InvalidEm: 0
LayerCount: 2
Layer: 0 0 "Back" 1
Layer: 1 0 "Fore" 0
XUID: [1021 711 1569345702 19788]
StyleMap: 0x0020
FSType: 0
OS2Version: 0
OS2_WeightWidthSlopeOnly: 0
OS2_UseTypoMetrics: 1
CreationTime: 1602678841
ModificationTime: 1623035562
PfmFamily: 17
TTFWeight: 700
TTFWidth: 5
LineGap: 92
VLineGap: 92
OS2TypoAscent: 0
OS2TypoAOffset: 1
OS2TypoDescent: 0
OS2TypoDOffset: 1
OS2TypoLinegap: 92
OS2WinAscent: 0
OS2WinAOffset: 1
OS2WinDescent: 0
OS2WinDOffset: 1
HheadAscent: 0
HheadAOffset: 1
HheadDescent: 0
HheadDOffset: 1
OS2Vendor: 'PfEd'
Lookup: 258 0 0 "Horizontal Kerning" { "Horizontal Kerning-1" [150,15,2] } ['kern' ('DFLT' <'dflt' > 'latn' <'dflt' > ) ]
MarkAttachClasses: 1
DEI: 91125
LangName: 1033
Encoding: ISO8859-1
UnicodeInterp: none
NameList: AGL For New Fonts
DisplaySize: -72
AntiAlias: 1
FitToEm: 0
WidthSeparation: 100
WinInfo: 0 26 10
BeginPrivate: 1
BlueValues 13 [0 0 655 655]
EndPrivate
Grid
-1024 655.360351562 m 0
 2048 655.360351562 l 1024
  Named: "Letter Top"
-1024 327.6796875 m 0
 2048 327.6796875 l 1024
  Named: "Mid Horizontal thing"
EndSplineSet
TeXData: 1 0 0 418816 209408 139605 670720 1048576 139605 783286 444596 497025 792723 393216 433062 380633 303038 157286 324010 404750 52429 2506097 1059062 262144
BeginChars: 256 191

StartChar: N
Encoding: 78 78 0
Width: 788
VWidth: 819
Flags: W
HStem: 0 21G<61 207.088 600.5 696> 635 20G<61 180 550 696>
VStem: 61 146<0 455> 551 145<203 655>
LayerCount: 2
Back
SplineSet
188.416015625 0 m 4
 182.517578125 0 176.127929688 5.40625 176.127929688 12.2880859375 c 4
 176.127929688 380.927734375 l 4
 176.127929688 390.266601562 182.026367188 393.215820312 188.416015625 393.215820312 c 4
 195.7890625 393.215820312 236.584960938 393.215820312 236.584960938 393.215820312 c 4
 270.991210938 393.215820312 451.870117188 98.3037109375 451.870117188 98.3037109375 c 0
 451.37890625 380.436523438 l 0
 451.37890625 390.266601562 456.786132812 393.215820312 463.666992188 393.215820312 c 0
 470.056640625 393.215820312 504.955078125 393.215820312 507.904296875 393.215820312 c 0
 515.767578125 393.215820312 520.192382812 389.775390625 520.192382812 380.927734375 c 0
 520.192382812 12.2880859375 l 0
 520.192382812 5.8984375 515.27734375 0 507.904296875 0 c 0
 502.989257812 0 457.278320312 0 457.278320312 0 c 0
 431.2265625 0 244.450195312 294.912109375 244.450195312 294.912109375 c 5
 244.94140625 12.2880859375 l 4
 244.94140625 5.40625 241.5 0 232.653320312 0 c 4
 227.73828125 0 190.874023438 0 188.416015625 0 c 4
EndSplineSet
Fore
SplineSet
696 0 m 5
 607 0 l 2
 594 0 585 2 577 4 c 0
 567 7 557 10 549 14 c 0
 539 23 526 38 512 55 c 0
 426 152 275 363 209 455 c 1
 207 0 l 1
 61 0 l 1
 61 655 l 1
 177 655 l 2
 183 655 189 653 194 651 c 0
 200 648 205 645 211 641 c 0
 224 632 239 617 255 600 c 0
 345 505 493 297 551 203 c 1
 550 655 l 1
 696 655 l 1
 696 0 l 5
EndSplineSet
Validated: 1
EndChar

StartChar: O
Encoding: 79 79 1
Width: 757
VWidth: 819
Flags: W
HStem: 0 129<208 553> 526 129<208 553>
VStem: 61 147<129 526> 553 143<129 526>
LayerCount: 2
Back
SplineSet
460.717773438 82.083984375 m 0
 453.345703125 82.083984375 445.97265625 88.96484375 445.97265625 96.337890625 c 0
 445.97265625 301.301757812 l 0
 445.97265625 308.673828125 453.345703125 316.046875 460.717773438 316.046875 c 0
 637.666015625 316.046875 l 0
 645.038085938 316.046875 652.411132812 308.673828125 652.411132812 301.301757812 c 0
 652.411132812 96.337890625 l 0
 652.411132812 88.96484375 645.038085938 82.083984375 637.666015625 82.083984375 c 0
 460.717773438 82.083984375 l 0
460.717773438 82.083984375 m 0
 453.345703125 82.083984375 445.97265625 88.96484375 445.97265625 96.337890625 c 0
 445.97265625 301.301757812 l 0
 445.97265625 308.673828125 453.345703125 316.046875 460.717773438 316.046875 c 0
 637.666015625 316.046875 l 0
 645.038085938 316.046875 652.411132812 308.673828125 652.411132812 301.301757812 c 0
 652.411132812 96.337890625 l 0
 652.411132812 88.96484375 645.038085938 82.083984375 637.666015625 82.083984375 c 0
 460.717773438 82.083984375 l 0
402.717773438 0 m 0
 390.4296875 0 378.141601562 12.2880859375 378.141601562 24.576171875 c 0
 378.141601562 368.639648438 l 0
 378.141601562 380.927734375 390.4296875 393.215820312 402.717773438 393.215820312 c 0
 697.629882812 393.215820312 l 0
 709.91796875 393.215820312 722.206054688 380.927734375 722.206054688 368.639648438 c 0
 722.206054688 24.576171875 l 0
 722.206054688 12.2880859375 709.91796875 0 697.629882812 0 c 0
 402.717773438 0 l 0
402.717773438 0 m 0
 390.4296875 0 378.141601562 12.2880859375 378.141601562 24.576171875 c 0
 378.141601562 368.639648438 l 0
 378.141601562 380.927734375 390.4296875 393.215820312 402.717773438 393.215820312 c 0
 697.629882812 393.215820312 l 0
 709.91796875 393.215820312 722.206054688 380.927734375 722.206054688 368.639648438 c 0
 722.206054688 24.576171875 l 0
 722.206054688 12.2880859375 709.91796875 0 697.629882812 0 c 0
 402.717773438 0 l 0
EndSplineSet
Fore
SplineSet
61 0 m 1
 61 655 l 1
 696 655 l 1
 696 0 l 1
 61 0 l 1
553 129 m 1
 553 526 l 1
 208 526 l 1
 208 129 l 1
 553 129 l 1
EndSplineSet
Validated: 1
EndChar

StartChar: P
Encoding: 80 80 2
Width: 757
VWidth: 819
Flags: W
HStem: 0 21G<61 207> 260 129<207 559> 526 129<207 559>
VStem: 61 146<0 260 389 526> 559 137<389 526>
LayerCount: 2
Back
SplineSet
657.818359375 321.946289062 m 4
 657.818359375 329.318359375 652.90234375 334.234375 645.530273438 334.234375 c 4
 458.751953125 334.234375 l 4
 451.37890625 334.234375 446.463867188 329.318359375 446.463867188 321.946289062 c 4
 446.463867188 236.420898438 l 4
 446.463867188 229.540039062 451.37890625 224.1328125 458.751953125 224.1328125 c 4
 645.530273438 224.1328125 l 4
 652.90234375 224.1328125 657.818359375 226.58984375 657.818359375 233.962890625 c 4
 657.818359375 321.946289062 l 4
389.939453125 393.215820312 m 0
 383.549804688 393.215820312 377.651367188 390.266601562 377.651367188 380.927734375 c 0
 377.651367188 12.2880859375 l 0
 377.651367188 5.40625 384.041015625 0 389.939453125 0 c 0
 392.397460938 0 429.260742188 0 434.17578125 0 c 0
 443.0234375 0 446.463867188 5.40625 446.463867188 12.2880859375 c 0
 446.463867188 157.778320312 l 0
 446.463867188 165.150390625 451.37890625 170.06640625 458.751953125 170.06640625 c 0
 709.426757812 170.06640625 l 0
 716.799804688 170.06640625 721.71484375 174.981445312 721.71484375 182.353515625 c 0
 721.71484375 380.927734375 l 0
 721.71484375 388.30078125 716.799804688 393.215820312 709.426757812 393.215820312 c 0
 389.939453125 393.215820312 l 0
EndSplineSet
Fore
SplineSet
207 389 m 1
 559 389 l 1
 559 526 l 1
 207 526 l 1
 207 389 l 1
207 0 m 1
 61 0 l 1
 61 655 l 1
 696 655 l 1
 696 260 l 1
 207 260 l 1
 207 0 l 1
EndSplineSet
Validated: 1
EndChar

StartChar: E
Encoding: 69 69 3
Width: 757
VWidth: 819
Flags: W
HStem: 0 129<209 696> 260 129<209 529> 534 121<209 696>
VStem: 61 148<129 260 389 534>
LayerCount: 2
Fore
SplineSet
61 655 m 1
 696 655 l 1
 696 535 l 1
 209 534 l 1
 209 389 l 1
 529 389 l 1
 529 260 l 1
 209 260 l 1
 209 129 l 1
 696 129 l 1
 696 0 l 1
 61 0 l 1
 61 655 l 1
EndSplineSet
Validated: 1
EndChar

StartChar: F
Encoding: 70 70 4
Width: 757
VWidth: 819
Flags: W
HStem: 0 21G<61 209> 265 124<209 529> 526 129<209 696>
VStem: 61 148<0 265 389 526>
LayerCount: 2
Fore
SplineSet
209 389 m 1
 529 389 l 1
 529 264 l 1
 209 265 l 1
 209 0 l 1
 61 0 l 1
 61 655 l 1
 696 655 l 1
 696 526 l 1
 209 526 l 1
 209 389 l 1
EndSplineSet
Validated: 1
EndChar

StartChar: H
Encoding: 72 72 6
Width: 757
VWidth: 819
Flags: W
HStem: 0 21G<61 207 551 696> 260 129<207 551> 635 20G<61 207 551 696>
VStem: 61 146<0 260 389 655> 551 145<0 260 389 654>
LayerCount: 2
Fore
SplineSet
207 389 m 1
 551 389 l 1
 551 654 l 1
 696 655 l 1
 696 0 l 1
 551 0 l 1
 551 260 l 1
 207 260 l 1
 207 0 l 1
 61 0 l 1
 61 655 l 1
 207 655 l 1
 207 389 l 1
EndSplineSet
Validated: 1
EndChar

StartChar: G
Encoding: 71 71 7
Width: 757
VWidth: 819
Flags: W
HStem: 0 129<207 549> 260 124<331 549> 526 128<207 696>
VStem: 61 146<129 526> 549 147<129 260>
LayerCount: 2
Fore
SplineSet
549 129 m 1
 549 260 l 1
 331 260 l 1
 331 384 l 1
 696 384 l 1
 696 0 l 1
 61 0 l 1
 61 654 l 1
 696 655 l 1
 696 526 l 1
 207 526 l 1
 207 129 l 1
 549 129 l 1
EndSplineSet
Validated: 1
EndChar

StartChar: A
Encoding: 65 65 8
Width: 756
Flags: W
HStem: 0 21G<61 198 558 695> 236 122<198 558> 534 121<198 558>
VStem: 61 137<0 236 358 534> 558 137<0 236 358 534>
LayerCount: 2
Fore
SplineSet
558 358 m 5
 558 534 l 5
 198 534 l 5
 198 358 l 5
 558 358 l 5
61 655 m 5
 695 655 l 5
 695 0 l 5
 558 0 l 5
 558 236 l 5
 198 236 l 5
 198 0 l 5
 61 0 l 5
 61 655 l 5
EndSplineSet
Validated: 1
EndChar

StartChar: X
Encoding: 88 88 9
Width: 757
VWidth: 819
Flags: W
HStem: 0 21G<61 186.59 571.41 696> 635 20G<61 186.872 570.213 696>
LayerCount: 2
Fore
SplineSet
168 0 m 1
 61 0 l 1
 61 92 l 1
 267 328 l 1
 61 564 l 1
 61 655 l 1
 169 655 l 1
 379 420 l 1
 588 655 l 1
 696 655 l 1
 696 563 l 1
 490 328 l 1
 696 91 l 1
 696 0 l 1
 590 0 l 1
 379 227 l 1
 168 0 l 1
EndSplineSet
Validated: 1
EndChar

StartChar: M
Encoding: 77 77 10
Width: 757
VWidth: 819
Flags: W
HStem: 0 21G<61 208 549 696> 635 20G<61 214 543.083 696>
VStem: 61 147<0 452> 549 147<0 451>
LayerCount: 2
Fore
SplineSet
696 655 m 1
 696 0 l 1
 549 0 l 1
 550 451 l 1
 433 271 l 1
 325 271 l 1
 207 452 l 1
 208 0 l 1
 61 0 l 1
 61 655 l 1
 199 655 l 1
 379 415 l 1
 558 655 l 1
 696 655 l 1
EndSplineSet
Validated: 1
EndChar

StartChar: I
Encoding: 73 73 11
Width: 757
VWidth: 819
Flags: W
HStem: 0 129<61 304 462 696> 526 129<61 304 462 696>
VStem: 304 158<129 526>
LayerCount: 2
Fore
SplineSet
61 129 m 1
 304 129 l 1
 304 526 l 1
 61 526 l 1
 61 655 l 1
 696 655 l 1
 696 526 l 1
 462 526 l 1
 462 129 l 1
 696 129 l 1
 696 0 l 1
 61 0 l 1
 61 129 l 1
EndSplineSet
Validated: 1
EndChar

StartChar: T
Encoding: 84 84 12
Width: 757
VWidth: 819
Flags: W
HStem: 0 21G<304.962 462> 526 129<61 304 462 696>
VStem: 305 157<0 526>
LayerCount: 2
Fore
SplineSet
304 526 m 1
 61 526 l 1
 61 655 l 1
 696 655 l 1
 696 526 l 1
 462 526 l 1
 462 0 l 5
 305 0 l 1
 304 526 l 1
EndSplineSet
Validated: 1
EndChar

StartChar: C
Encoding: 67 67 13
Width: 757
VWidth: 819
Flags: W
HStem: 0 129<207 696> 526 129<207 696>
VStem: 61 146<129 526>
LayerCount: 2
Fore
SplineSet
696 129 m 1
 696 0 l 1
 61 0 l 1
 61 655 l 1
 696 655 l 1
 696 526 l 1
 207 526 l 1
 207 129 l 1
 696 129 l 1
EndSplineSet
Validated: 1
EndChar

StartChar: S
Encoding: 83 83 14
Width: 742
Flags: W
HStem: 0 191<61 199> 0 121<199 544> 268 120<198 544> 464 191<544 681> 534 121<198 544>
VStem: 61 137<121 191 388 534> 544 137<121 268 464 534>
LayerCount: 2
Fore
SplineSet
198 534 m 1x2e
 198 388 l 1
 681 388 l 1
 681 0 l 1x6e
 61 0 l 1
 61 191 l 1
 199 191 l 1xa6
 199 121 l 1
 544 121 l 1
 544 268 l 1
 61 268 l 1
 61 655 l 1x6e
 681 655 l 1
 681 464 l 1
 544 464 l 1x36
 544 534 l 1
 198 534 l 1x2e
EndSplineSet
Validated: 1
EndChar

StartChar: D
Encoding: 68 68 15
Width: 742
Flags: W
HStem: 0 121<198 432> 534 121<198 432>
VStem: 61 137<121 534> 544 137<227 429>
LayerCount: 2
Fore
SplineSet
61 0 m 1
 61 655 l 1
 524 655 l 1
 681 503 l 1
 681 152 l 1
 524 0 l 1
 61 0 l 1
432 534 m 1
 198 534 l 1
 198 121 l 1
 432 121 l 1
 544 227 l 1
 544 429 l 1
 432 534 l 1
EndSplineSet
Validated: 1
EndChar

StartChar: R
Encoding: 82 82 16
Width: 757
VWidth: 819
Flags: W
HStem: 0 21G<61 207 567.846 696> 260 129<207 290 500 556> 526 129<207 556>
VStem: 61 146<0 260 389 526> 556 140<389 526>
LayerCount: 2
Fore
SplineSet
500 260 m 1
 696 91 l 1
 696 0 l 1
 591 0 l 1
 290 260 l 1
 207 260 l 1
 207 0 l 1
 61 0 l 1
 61 655 l 1
 696 655 l 1
 696 260 l 1
 500 260 l 1
207 389 m 1
 556 389 l 1
 556 526 l 1
 207 526 l 1
 207 389 l 1
EndSplineSet
Validated: 1
EndChar

StartChar: U
Encoding: 85 85 17
Width: 757
VWidth: 819
Flags: W
HStem: 0 129<205 553> 635 20G<61 205 553 696>
VStem: 61 144<129 655> 553 143<129 655>
LayerCount: 2
Fore
SplineSet
61 0 m 1
 61 655 l 1
 205 655 l 1
 205 129 l 1
 553 129 l 1
 553 655 l 1
 696 655 l 1
 696 0 l 1
 61 0 l 1
EndSplineSet
Validated: 1
EndChar

StartChar: L
Encoding: 76 76 18
Width: 757
VWidth: 819
Flags: W
HStem: 0 129<205 696> 635 20G<61 205>
VStem: 61 144<129 655>
LayerCount: 2
Fore
SplineSet
205 129 m 1
 696 129 l 1
 696 0 l 1
 61 0 l 1
 61 655 l 1
 205 655 l 1
 205 129 l 1
EndSplineSet
Validated: 1
EndChar

StartChar: K
Encoding: 75 75 19
Width: 757
VWidth: 819
Flags: W
HStem: 0 21G<61 205 558.202 696> 635 20G<61 205 557.58 696>
VStem: 61 144<0 223 424 655>
LayerCount: 2
Fore
SplineSet
205 223 m 1
 205 0 l 1
 61 0 l 1
 61 655 l 1
 205 655 l 1
 205 424 l 1
 591 655 l 1
 696 655 l 1
 696 560 l 1
 309 328 l 1
 696 94 l 1
 696 0 l 1
 593 0 l 1
 205 223 l 1
EndSplineSet
Validated: 1
EndChar

StartChar: Y
Encoding: 89 89 20
Width: 757
VWidth: 819
Flags: W
HStem: 0 21G<298 460> 635 20G<61 188.718 568.376 696>
VStem: 298 162<0 322>
LayerCount: 2
Fore
SplineSet
379 442 m 1
 588 655 l 1
 696 655 l 1
 696 562 l 1
 460 322 l 1
 460 0 l 1
 298 0 l 1
 298 323 l 1
 61 563 l 1
 61 655 l 1
 169 655 l 1
 379 442 l 1
EndSplineSet
Validated: 1
EndChar

StartChar: Q
Encoding: 81 81 21
Width: 757
VWidth: 819
Flags: W
HStem: 0 129<207 438> 526 129<207 551>
VStem: 61 146<129 526> 549 147<222 526>
LayerCount: 2
Fore
SplineSet
61 0 m 1
 61 655 l 1
 696 655 l 1
 696 0 l 1
 61 0 l 1
438 129 m 1
 313 253 l 1
 313 342 l 1
 430 342 l 1
 549 222 l 1
 551 526 l 1
 207 526 l 1
 207 129 l 1
 438 129 l 1
EndSplineSet
Validated: 1
EndChar

StartChar: V
Encoding: 86 86 22
Width: 741
VWidth: 819
Flags: W
HStem: 0 21G<302.908 451.122> 635 20G<46 201.079 553.965 709>
LayerCount: 2
Fore
SplineSet
378 197 m 1
 562 655 l 1
 709 655 l 1
 443 0 l 1
 311 0 l 1
 46 655 l 1
 193 655 l 1
 378 197 l 1
EndSplineSet
Validated: 1
EndChar

StartChar: W
Encoding: 87 87 23
Width: 757
VWidth: 819
Flags: W
HStem: 1 21G<61 213.938 543.145 696> 636 20G<61 207 550 696>
VStem: 61 145<205 656> 551 145<206 656>
LayerCount: 2
Fore
SplineSet
550 656 m 1
 696 656 l 1
 696 1 l 1
 558 1 l 1
 379 242 l 1
 199 1 l 1
 61 1 l 1
 61 656 l 1
 207 656 l 1
 206 205 l 1
 325 385 l 1
 433 385 l 1
 551 206 l 1
 550 656 l 1
EndSplineSet
Validated: 1
EndChar

StartChar: Z
Encoding: 90 90 24
Width: 757
VWidth: 819
Flags: W
HStem: 0 129<271 696> 526 129<61 485>
LayerCount: 2
Fore
SplineSet
696 129 m 1
 696 0 l 1
 61 0 l 1
 61 113 l 1
 485 526 l 1
 61 526 l 1
 61 655 l 1
 696 655 l 1
 696 543 l 1
 271 129 l 1
 696 129 l 1
681 0 m 1025
EndSplineSet
Validated: 1
EndChar

StartChar: J
Encoding: 74 74 25
Width: 757
VWidth: 819
Flags: W
HStem: 0 129<209 551> 526 129<340 551>
VStem: 61 148<129 276> 551 147<129 526>
LayerCount: 2
Fore
SplineSet
698 0 m 1
 61 0 l 1
 61 276 l 1
 209 276 l 1
 209 129 l 1
 551 129 l 1
 551 526 l 1
 340 526 l 1
 340 655 l 1
 696 655 l 1
 698 0 l 1
EndSplineSet
Validated: 1
EndChar

StartChar: B
Encoding: 66 66 26
Width: 757
VWidth: 819
Flags: W
HStem: 0 129<209 558> 266 129<209 442> 532 123<209 442>
VStem: 61 148<129 266 395 532> 442 148<395 532> 558 138<129 266>
LayerCount: 2
Fore
SplineSet
590 655 m 1xf8
 590 395 l 1xf8
 696 395 l 1
 696 0 l 1xf4
 61 0 l 1
 61 655 l 1
 590 655 l 1xf8
209 532 m 1
 209 395 l 1
 442 395 l 1
 442 532 l 1
 209 532 l 1
209 266 m 1
 209 129 l 1
 558 129 l 1
 558 266 l 1xf4
 209 266 l 1
EndSplineSet
Validated: 1
EndChar

StartChar: period
Encoding: 46 46 27
Width: 221
VWidth: 749
Flags: W
HStem: -15 129<46 175>
VStem: 46 129<-15 114>
LayerCount: 2
Fore
SplineSet
46 114 m 1
 175 114 l 1
 175 -15 l 1
 46 -15 l 1
 46 114 l 1
EndSplineSet
Validated: 1
EndChar

StartChar: colon
Encoding: 58 58 28
Width: 221
VWidth: 790
Flags: W
HStem: 95 129<46 175> 394 129<46 175>
VStem: 46 129<95 224 394 523>
LayerCount: 2
Fore
SplineSet
46 523 m 5
 175 523 l 5
 175 394 l 5
 46 394 l 5
 46 523 l 5
46 224 m 5
 175 224 l 5
 175 95 l 5
 46 95 l 5
 46 224 l 5
EndSplineSet
Validated: 1
EndChar

StartChar: underscore
Encoding: 95 95 29
Width: 696
VWidth: 749
Flags: W
HStem: -15 129<46 650>
LayerCount: 2
Fore
SplineSet
46 114 m 1
 650 114 l 1
 650 -15 l 1
 46 -15 l 1
 46 114 l 1
EndSplineSet
Validated: 1
EndChar

StartChar: comma
Encoding: 44 44 30
Width: 262
VWidth: 739
Flags: W
HStem: -97 211<90 112>
VStem: 42 184
LayerCount: 2
Fore
SplineSet
90 114 m 1
 226 114 l 1
 112 -97 l 1
 102 -97 l 1
 61 -97 l 1
 42 -97 l 1
 90 114 l 1
EndSplineSet
Validated: 1
EndChar

StartChar: semicolon
Encoding: 59 59 31
Width: 262
VWidth: 780
Flags: W
HStem: 312 129<87 216>
VStem: 87 129<312 441>
LayerCount: 2
Fore
SplineSet
87 441 m 1
 216 441 l 1
 216 312 l 1
 87 312 l 1
 87 441 l 1
90 103 m 1
 226 103 l 1
 112 -108 l 1
 102 -108 l 1
 61 -108 l 1
 42 -108 l 1
 90 103 l 1
EndSplineSet
Validated: 1
EndChar

StartChar: question
Encoding: 63 63 32
Width: 696
VWidth: 819
Flags: W
HStem: -15 129<284 413> 230 162<284 413> 263 129<413 507> 542 129<46 507>
VStem: 284 129<-15 114 230 263> 507 143<392 542>
LayerCount: 2
Fore
SplineSet
299 246 m 1025x9c
507 542 m 1
 46 542 l 1
 46 671 l 1
 650 671 l 1
 650 263 l 1
 413 263 l 1xbc
 413 252 413 241 413 230 c 1
 284 230 l 1
 284 392 l 1xdc
 507 392 l 1xbc
 507 542 l 1
284 114 m 1
 413 114 l 1
 413 -15 l 1
 284 -15 l 1
 284 114 l 1
EndSplineSet
Validated: 1
EndChar

StartChar: zero
Encoding: 48 48 33
Width: 663
Flags: W
HStem: 0 121<198 384> 534 121<278 462>
VStem: 61 137<121 447> 462 140<209 534>
LayerCount: 2
Fore
SplineSet
462 209 m 1
 462 534 l 1
 278 534 l 1
 462 209 l 1
198 447 m 1
 198 121 l 1
 384 121 l 1
 198 447 l 1
61 0 m 1
 61 655 l 1
 602 655 l 1
 602 0 l 1
 61 0 l 1
EndSplineSet
Validated: 1
EndChar

StartChar: a
Encoding: 97 97 34
Width: 596
VWidth: 819
Flags: HW
LayerCount: 2
Fore
SplineSet
188 196 m 1
 188 121 l 1
 408 121 l 1
 408 196 l 1
 188 196 l 1
50 316 m 1
 408 316 l 1
 408 379 l 1
 50 379 l 1
 50 500 l 1
 546 500 l 1
 546 0 l 1
 50 0 l 1
 50 316 l 1
EndSplineSet
Validated: 1
EndChar

StartChar: b
Encoding: 98 98 35
Width: 596
VWidth: 819
Flags: HW
LayerCount: 2
Fore
SplineSet
408 379 m 1
 188 379 l 1
 188 121 l 1
 408 121 l 1
 408 379 l 1
188 500 m 1
 546 500 l 1
 546 0 l 1
 50 0 l 1
 50 655 l 1
 188 655 l 1
 188 500 l 1
EndSplineSet
Validated: 1
EndChar

StartChar: c
Encoding: 99 99 36
Width: 596
VWidth: 819
Flags: HW
LayerCount: 2
Fore
SplineSet
50 0 m 1
 50 500 l 1
 546 500 l 1
 546 379 l 1
 188 379 l 1
 188 121 l 1
 546 121 l 1
 546 0 l 1
 50 0 l 1
EndSplineSet
Validated: 1
EndChar

StartChar: d
Encoding: 100 100 37
Width: 596
VWidth: 819
Flags: HW
LayerCount: 2
Fore
SplineSet
188 379 m 1
 188 121 l 1
 408 121 l 1
 408 379 l 1
 188 379 l 1
50 500 m 1
 408 500 l 1
 408 655 l 1
 546 655 l 1
 546 0 l 1
 50 0 l 1
 50 500 l 1
EndSplineSet
Validated: 1
EndChar

StartChar: e
Encoding: 101 101 38
Width: 596
VWidth: 819
Flags: HW
LayerCount: 2
Fore
SplineSet
408 304 m 1
 408 379 l 1
 188 379 l 1
 188 304 l 1
 408 304 l 1
546 184 m 1
 188 184 l 1
 188 121 l 1
 546 121 l 1
 546 0 l 1
 50 0 l 1
 50 500 l 1
 546 500 l 1
 546 184 l 1
EndSplineSet
Validated: 1
EndChar

StartChar: f
Encoding: 102 102 39
Width: 476
VWidth: 819
Flags: HWO
LayerCount: 2
Fore
SplineSet
426 379 m 1
 275 379 l 1
 275 0 l 5
 120 0 l 1
 120 379 l 1
 50 379 l 1
 50 500 l 1
 120 500 l 1
 120 655 l 1
 426 655 l 1
 426 534 l 1
 275 534 l 1
 275 500 l 1
 426 500 l 1
 426 379 l 1
EndSplineSet
EndChar

StartChar: g
Encoding: 103 103 40
Width: 596
VWidth: 819
Flags: HW
LayerCount: 2
Fore
SplineSet
188 121 m 1
 408 121 l 1
 408 379 l 1
 188 379 l 1
 188 121 l 1
546 500 m 1
 546 -205 l 1
 51 -205 l 1
 51 -84 l 1
 409 -84 l 1
 408 0 l 1
 50 0 l 1
 50 500 l 1
 546 500 l 1
EndSplineSet
Validated: 1
EndChar

StartChar: h
Encoding: 104 104 41
Width: 596
VWidth: 819
Flags: HW
LayerCount: 2
Fore
SplineSet
546 500 m 1
 546 0 l 1
 409 0 l 1
 409 379 l 1
 187 379 l 1
 187 0 l 1
 50 0 l 1
 50 655 l 1
 187 655 l 1
 187 500 l 1
 546 500 l 1
EndSplineSet
Validated: 1
EndChar

StartChar: i
Encoding: 105 105 42
Width: 237
Flags: HW
LayerCount: 2
Fore
SplineSet
187 500 m 1
 187 0 l 1
 50 0 l 1
 50 500 l 1
 187 500 l 1
187 655 m 1
 187 534 l 1
 50 534 l 1
 50 655 l 1
 187 655 l 1
EndSplineSet
Validated: 1
EndChar

StartChar: j
Encoding: 106 106 43
Width: 474
Flags: HW
LayerCount: 2
Fore
SplineSet
191 -4 m 1
 191 -84 l 1
 287 -84 l 1
 287 500 l 1
 424 500 l 1
 424 -205 l 1
 50 -205 l 1
 50 -4 l 1
 191 -4 l 1
424 655 m 1
 424 534 l 1
 287 534 l 1
 287 655 l 1
 424 655 l 1
EndSplineSet
Validated: 1
EndChar

StartChar: k
Encoding: 107 107 44
Width: 596
Flags: HW
LayerCount: 2
Fore
SplineSet
187 150 m 1
 187 0 l 1
 50 0 l 1
 50 655 l 1
 187 655 l 1
 187 344 l 1
 445 500 l 1
 546 500 l 1
 546 412 l 1
 289 251 l 1
 546 88 l 1
 546 0 l 1
 447 0 l 1
 187 150 l 1
EndSplineSet
Validated: 1
EndChar

StartChar: l
Encoding: 108 108 45
Width: 237
Flags: HW
LayerCount: 2
Fore
SplineSet
50 0 m 1
 50 655 l 1
 187 655 l 1
 187 0 l 1
 50 0 l 1
EndSplineSet
Validated: 1
EndChar

StartChar: m
Encoding: 109 109 46
Width: 795
VWidth: 819
Flags: HW
LayerCount: 2
Fore
SplineSet
50 500 m 1
 745 500 l 1
 745 0 l 1
 608 0 l 1
 608 379 l 1
 466 379 l 1
 466 0 l 1
 329 0 l 1
 329 379 l 1
 187 379 l 1
 187 0 l 1
 50 0 l 1
 50 500 l 1
EndSplineSet
Validated: 1
EndChar

StartChar: n
Encoding: 110 110 47
Width: 596
VWidth: 819
Flags: HW
LayerCount: 2
Fore
SplineSet
409 379 m 1
 187 379 l 1
 187 0 l 1
 50 0 l 1
 50 500 l 1
 546 500 l 1
 546 0 l 1
 409 0 l 1
 409 379 l 1
EndSplineSet
Validated: 1
EndChar

StartChar: o
Encoding: 111 111 48
Width: 596
VWidth: 819
Flags: HW
LayerCount: 2
Fore
SplineSet
408 379 m 1
 188 379 l 1
 188 121 l 1
 408 121 l 1
 408 379 l 1
50 0 m 1
 50 500 l 1
 546 500 l 1
 546 0 l 1
 50 0 l 1
EndSplineSet
Validated: 1
EndChar

StartChar: p
Encoding: 112 112 49
Width: 596
VWidth: 819
Flags: HW
LayerCount: 2
Fore
SplineSet
408 121 m 1
 408 379 l 1
 188 379 l 1
 188 121 l 1
 408 121 l 1
546 0 m 1
 188 0 l 1
 188 -205 l 1
 50 -205 l 1
 50 500 l 1
 546 500 l 1
 546 0 l 1
EndSplineSet
Validated: 1
EndChar

StartChar: q
Encoding: 113 113 50
Width: 596
VWidth: 819
Flags: HW
LayerCount: 2
Fore
SplineSet
188 121 m 1
 408 121 l 1
 408 379 l 1
 188 379 l 1
 188 121 l 1
408 -0 m 1
 50 -0 l 1
 50 500 l 1
 546 500 l 1
 546 -205 l 1
 408 -205 l 1
 408 -0 l 1
EndSplineSet
Validated: 1
EndChar

StartChar: r
Encoding: 114 114 51
Width: 596
VWidth: 819
Flags: HW
LayerCount: 2
Fore
SplineSet
188 379 m 1
 188 0 l 1
 50 0 l 1
 50 500 l 1
 546 500 l 1
 546 379 l 1
 188 379 l 1
EndSplineSet
Validated: 1
EndChar

StartChar: s
Encoding: 115 115 52
Width: 596
VWidth: 819
Flags: HW
LayerCount: 2
Fore
SplineSet
546 0 m 1
 50 0 l 1
 50 121 l 1
 411 121 l 1
 411 184 l 1
 50 184 l 1
 50 500 l 1
 546 500 l 1
 546 379 l 1
 188 379 l 1
 188 304 l 1
 545 304 l 1
 546 0 l 1
EndSplineSet
Validated: 1
EndChar

StartChar: t
Encoding: 116 116 53
Width: 514
Flags: HW
LayerCount: 2
Fore
SplineSet
464 379 m 1
 342 379 l 1
 342 0 l 1
 172 0 l 1
 172 379 l 1
 50 379 l 1
 50 500 l 1
 172 500 l 1
 172 655 l 1
 342 655 l 1
 342 500 l 1
 464 500 l 1
 464 379 l 1
EndSplineSet
Validated: 1
EndChar

StartChar: u
Encoding: 117 117 54
Width: 596
VWidth: 819
Flags: HW
LayerCount: 2
Fore
SplineSet
187 121 m 1
 409 121 l 1
 409 500 l 1
 546 500 l 1
 546 0 l 1
 50 0 l 1
 50 500 l 1
 187 500 l 1
 187 121 l 1
EndSplineSet
Validated: 1
EndChar

StartChar: v
Encoding: 118 118 55
Width: 596
VWidth: 819
Flags: HW
LayerCount: 2
Fore
SplineSet
303 216 m 1
 421 500 l 1
 556 500 l 1
 356 0 l 1
 250 0 l 1
 50 500 l 1
 186 500 l 1
 303 216 l 1
EndSplineSet
Validated: 1
EndChar

StartChar: w
Encoding: 119 119 56
Width: 795
VWidth: 819
Flags: HW
LayerCount: 2
Fore
SplineSet
745 0 m 1
 50 0 l 1
 50 500 l 1
 187 500 l 1
 187 121 l 1
 329 121 l 1
 329 500 l 1
 466 500 l 1
 466 121 l 1
 608 121 l 1
 608 500 l 1
 745 500 l 1
 745 0 l 1
EndSplineSet
Validated: 1
EndChar

StartChar: x
Encoding: 120 120 57
Width: 596
Flags: HW
LayerCount: 2
Fore
SplineSet
151 0 m 1
 50 0 l 1
 50 88 l 1
 190 251 l 1
 50 414 l 1
 50 500 l 1
 152 500 l 1
 297 340 l 1
 443 500 l 1
 546 500 l 1
 546 413 l 1
 404 251 l 1
 546 87 l 1
 546 0 l 1
 445 -0 l 1
 297 153 l 1
 151 0 l 1
EndSplineSet
Validated: 1
EndChar

StartChar: y
Encoding: 121 121 58
Width: 596
VWidth: 819
Flags: HW
LayerCount: 2
Fore
SplineSet
280 -205 m 1
 130 -205 l 1
 209 4 l 1
 40 500 l 1
 180 500 l 1
 295 198 l 1
 425 500 l 1
 555 500 l 1
 280 -205 l 1
EndSplineSet
Validated: 1
EndChar

StartChar: z
Encoding: 122 122 59
Width: 596
VWidth: 819
Flags: HW
LayerCount: 2
Fore
SplineSet
346 379 m 1
 50 379 l 1
 50 500 l 1
 546 500 l 1
 546 391 l 1
 250 117 l 1
 546 116 l 1
 546 0 l 1
 50 0 l 1
 50 108 l 1
 346 379 l 1
EndSplineSet
Validated: 1
EndChar

StartChar: one
Encoding: 49 49 60
Width: 675
VWidth: 819
Flags: W
HStem: 0 129<61 260 422 614> 526 129<61 260>
VStem: 260 162<129 526>
LayerCount: 2
Fore
SplineSet
260 129 m 1
 260 526 l 1
 61 526 l 1
 61 655 l 1
 422 655 l 1
 422 129 l 1
 614 129 l 1
 614 0 l 1
 61 0 l 1
 61 129 l 1
 260 129 l 1
EndSplineSet
Validated: 1
EndChar

StartChar: two
Encoding: 50 50 61
Width: 675
VWidth: 819
Flags: W
HStem: 0 129<207 614> 263 129<207 469> 526 129<61 469>
VStem: 61 146<129 263> 469 145<392 526>
CounterMasks: 1 e0
LayerCount: 2
Fore
SplineSet
207 263 m 1
 207 129 l 1
 614 129 l 1
 614 0 l 1
 61 0 l 1
 61 392 l 1
 469 392 l 1
 469 526 l 1
 61 526 l 1
 61 655 l 1
 614 655 l 1
 614 263 l 1
 207 263 l 1
EndSplineSet
Validated: 1
EndChar

StartChar: three
Encoding: 51 51 62
Width: 675
VWidth: 819
Flags: W
HStem: 0 129<61 467> 260 129<143 467> 535 120<61 467>
VStem: 467 147<129 260 389 534>
LayerCount: 2
Fore
SplineSet
61 535 m 1
 61 655 l 1
 614 655 l 1
 614 0 l 1
 61 0 l 1
 61 129 l 1
 467 129 l 1
 467 260 l 1
 143 260 l 1
 143 389 l 1
 467 389 l 1
 467 534 l 1
 61 535 l 1
EndSplineSet
Validated: 1
EndChar

StartChar: four
Encoding: 52 52 63
Width: 675
VWidth: 819
Flags: W
HStem: 0 21G<469 614> 260 129<199 469> 635 20G<61 199 469 614>
VStem: 61 138<389 655> 469 145<0 260 389 655>
LayerCount: 2
Fore
SplineSet
469 655 m 1
 614 655 l 1
 614 0 l 1
 469 0 l 1
 469 260 l 1
 61 260 l 1
 61 655 l 1
 199 655 l 1
 199 389 l 1
 469 389 l 1
 469 655 l 1
EndSplineSet
Validated: 1
EndChar

StartChar: five
Encoding: 53 53 64
Width: 660
Flags: W
HStem: 0 121<61 462> 268 120<198 462> 534 121<198 599>
VStem: 61 137<388 534> 462 137<121 268>
LayerCount: 2
Fore
SplineSet
599 655 m 1
 599 534 l 1
 198 534 l 1
 198 388 l 1
 599 388 l 1
 599 0 l 1
 61 0 l 1
 61 121 l 1
 462 121 l 1
 462 268 l 1
 61 268 l 1
 61 655 l 1
 599 655 l 1
EndSplineSet
Validated: 1
EndChar

StartChar: six
Encoding: 54 54 65
Width: 675
VWidth: 819
Flags: W
HStem: 0 129<209 475> 266 129<209 475> 532 123<209 614>
VStem: 61 148<129 266 395 532> 475 139<129 266>
LayerCount: 2
Fore
SplineSet
61 655 m 1
 614 655 l 1
 614 532 l 1
 209 532 l 1
 209 395 l 1
 614 395 l 1
 614 0 l 1
 61 0 l 1
 61 655 l 1
209 266 m 1
 209 129 l 1
 475 129 l 1
 475 266 l 1
 209 266 l 1
EndSplineSet
Validated: 1
EndChar

StartChar: seven
Encoding: 55 55 66
Width: 675
VWidth: 819
Flags: W
HStem: 0 21G<460 614> 263 129<275 460> 526 129<61 460>
VStem: 460 154<0 263 392 526>
LayerCount: 2
Fore
SplineSet
614 655 m 1
 614 0 l 1
 460 0 l 1
 460 263 l 1
 275 263 l 1
 275 392 l 1
 460 392 l 1
 460 526 l 1
 61 526 l 1
 61 655 l 1
 614 655 l 1
EndSplineSet
Validated: 1
EndChar

StartChar: eight
Encoding: 56 56 67
Width: 675
VWidth: 819
Flags: W
HStem: 0 129<209 469> 266 129<209 469> 532 123<209 469>
VStem: 61 148<129 266 395 532> 469 145<129 266 395 532>
LayerCount: 2
Fore
SplineSet
61 655 m 1
 614 655 l 1
 614 0 l 1
 61 0 l 1
 61 655 l 1
209 532 m 1
 209 395 l 1
 469 395 l 1
 469 532 l 1
 209 532 l 1
209 266 m 1
 209 129 l 1
 469 129 l 1
 469 266 l 1
 209 266 l 1
EndSplineSet
Validated: 1
EndChar

StartChar: nine
Encoding: 57 57 68
Width: 675
VWidth: 819
Flags: W
HStem: 0 123<61 467> 260 129<201 467> 526 129<201 467>
VStem: 61 140<389 526> 467 147<123 260 389 526>
LayerCount: 2
Fore
SplineSet
614 0 m 1
 61 0 l 1
 61 123 l 1
 467 123 l 1
 467 260 l 1
 61 260 l 1
 61 655 l 1
 614 655 l 1
 614 0 l 1
467 389 m 1
 467 526 l 1
 201 526 l 1
 201 389 l 1
 467 389 l 1
EndSplineSet
Validated: 1
EndChar

StartChar: bracketleft
Encoding: 91 91 69
Width: 491
VWidth: 819
Flags: W
HStem: -15 129<210 425> 542 129<210 425>
VStem: 67 358<-15 114 542 671> 67 143<114 542>
LayerCount: 2
Fore
SplineSet
425 -15 m 1xe0
 67 -15 l 1
 67 671 l 1
 425 671 l 1
 425 542 l 1xe0
 210 542 l 1
 210 114 l 1xd0
 425 114 l 1
 425 -15 l 1xe0
EndSplineSet
Validated: 1
EndChar

StartChar: bracketright
Encoding: 93 93 70
Width: 491
VWidth: 819
Flags: W
HStem: -15 129<67 282> 542 129<67 282>
VStem: 67 358<-15 114 542 671> 282 143<114 542>
LayerCount: 2
Fore
SplineSet
67 -15 m 1xe0
 67 114 l 1xe0
 282 114 l 1
 282 542 l 1xd0
 67 542 l 1
 67 671 l 1
 425 671 l 1
 425 -15 l 1
 67 -15 l 1xe0
EndSplineSet
Validated: 1
EndChar

StartChar: slash
Encoding: 47 47 71
Width: 645
VWidth: 819
Flags: W
LayerCount: 2
Fore
SplineSet
247 -15 m 1
 138 -15 l 1
 138 80 l 1
 468 671 l 1
 579 671 l 1
 579 575 l 1
 247 -15 l 1
EndSplineSet
Validated: 1
EndChar

StartChar: backslash
Encoding: 92 92 72
Width: 645
VWidth: 819
Flags: W
LayerCount: 2
Fore
SplineSet
138 575 m 1
 138 671 l 1
 249 671 l 1
 579 80 l 1
 579 -15 l 1
 470 -15 l 1
 138 575 l 1
EndSplineSet
Validated: 1
EndChar

StartChar: parenleft
Encoding: 40 40 73
Width: 491
VWidth: 819
Flags: W
HStem: -15 129<219.285 425> 542 129<223.285 425>
VStem: 67 358<22.9102 114 542 632.705> 67 143<127.285 531.716>
LayerCount: 2
Fore
SplineSet
425 542 m 1xe0
 256 542 l 2
 240 542 229 537 223 532 c 0
 215 526 210 516 210 496 c 2
 210 160 l 2xd0
 210 144 214 133 219 127 c 0
 225 119 236 114 256 114 c 2
 425 114 l 1
 425 -15 l 1
 164 -15 l 2
 141 -15 118 -5 102 9 c 0
 82 27 67 53 67 82 c 2
 67 573 l 2
 67 596 77 619 91 635 c 0
 109 655 135 671 164 671 c 2
 425 671 l 1
 425 542 l 1xe0
EndSplineSet
Validated: 1
EndChar

StartChar: parenright
Encoding: 41 41 74
Width: 491
VWidth: 819
Flags: W
HStem: -15 129<67 271.716> 542 129<67 267.716>
VStem: 282 143<127.285 531.716>
LayerCount: 2
Fore
SplineSet
67 542 m 1
 67 671 l 1
 328 671 l 2
 357 671 382 655 400 635 c 0
 414 619 425 596 425 573 c 2
 425 82 l 2
 425 53 409 27 389 9 c 0
 373 -5 351 -15 328 -15 c 2
 67 -15 l 1
 67 114 l 1
 236 114 l 2
 256 114 266 119 272 127 c 0
 277 133 282 144 282 160 c 2
 282 496 l 2
 282 516 276 526 268 532 c 0
 262 537 252 542 236 542 c 2
 67 542 l 1
EndSplineSet
Validated: 1
EndChar

StartChar: exclam
Encoding: 33 33 75
Width: 221
VWidth: 819
Flags: W
HStem: -15 129<46 175>
VStem: 46 129<-15 114 181 671>
LayerCount: 2
Fore
SplineSet
46 671 m 1
 175 671 l 1
 175 181 l 1
 46 181 l 1
 46 671 l 1
61 655 m 1025
46 114 m 1
 175 114 l 1
 175 -15 l 1
 46 -15 l 1
 46 114 l 1
EndSplineSet
Validated: 1
EndChar

StartChar: quotesingle
Encoding: 39 39 76
Width: 221
VWidth: 880
Flags: W
HStem: 476 195<46 175>
VStem: 46 129<476 671>
LayerCount: 2
Fore
SplineSet
46 671 m 1
 175 671 l 1
 175 476 l 1
 46 476 l 1
 46 671 l 1
EndSplineSet
Validated: 1
EndChar

StartChar: quotedbl
Encoding: 34 34 77
Width: 360
VWidth: 880
Flags: W
HStem: 476 195<46 175 185 314>
VStem: 46 129<476 671> 185 129<476 671>
LayerCount: 2
Fore
SplineSet
185 671 m 1
 314 671 l 1
 314 476 l 1
 185 476 l 1
 185 671 l 1
46 671 m 1
 175 671 l 1
 175 476 l 1
 46 476 l 1
 46 671 l 1
EndSplineSet
Validated: 1
EndChar

StartChar: hyphen
Encoding: 45 45 78
Width: 450
VWidth: 819
Flags: W
HStem: 263 129<46 404>
LayerCount: 2
Fore
SplineSet
46 392 m 1
 404 392 l 1
 404 263 l 1
 46 263 l 1
 46 392 l 1
EndSplineSet
Validated: 1
EndChar

StartChar: dollar
Encoding: 36 36 79
Width: 742
Flags: W
HStem: 0 191<61 199> 0 121<199 302 449 544> 268 120<198 302 449 544> 464 191<544 681> 534 121<198 302 449 544>
VStem: 61 137<121 191 388 534> 302 147<-41 0 121 268 388 534 655 696> 544 137<121 268 464 534>
LayerCount: 2
Back
Fore
SplineSet
681 0 m 1x6f
 449 0 l 1
 449 -14 449 -27 449 -41 c 1
 302 -41 l 1
 302 -27 302 -14 302 0 c 1x6f
 61 0 l 1
 61 191 l 1
 199 191 l 1xa7
 199 121 l 1
 302 121 l 1
 302 268 l 1
 61 268 l 1
 61 655 l 1
 302 655 l 1
 302 669 302 682 302 696 c 1
 449 696 l 1
 449 682 449 669 449 655 c 1x6f
 681 655 l 1
 681 464 l 1
 544 464 l 1x37
 544 534 l 1
 449 534 l 1
 449 388 l 1
 681 388 l 1
 681 0 l 1x6f
302 534 m 1
 198 534 l 1
 198 388 l 1
 302 388 l 1
 302 534 l 1
544 121 m 1
 544 268 l 1
 449 268 l 1
 449 121 l 1
 544 121 l 1
EndSplineSet
Validated: 1
EndChar

StartChar: percent
Encoding: 37 37 80
Width: 757
VWidth: 819
Flags: W
HStem: 0 218<459 696> 437 218<61 286>
VStem: 61 225<437 655> 459 237<0 218>
LayerCount: 2
Fore
SplineSet
459 0 m 1
 459 218 l 1
 696 218 l 1
 696 0 l 1
 459 0 l 1
61 437 m 1
 61 655 l 1
 286 655 l 1
 286 437 l 1
 61 437 l 1
696 563 m 1
 168 0 l 1
 61 0 l 1
 61 92 l 1
 588 655 l 1
 696 655 l 1
 696 563 l 1
EndSplineSet
Validated: 1
EndChar

StartChar: numbersign
Encoding: 35 35 81
Width: 696
VWidth: 819
Flags: W
HStem: 108 129<46 153 296 400 544 650> 419 129<46 153 296 400 544 650>
VStem: 153 143<-15 108 237 419 548 671> 400 144<-15 108 237 419 548 671>
LayerCount: 2
Fore
SplineSet
153 108 m 1
 46 108 l 1
 46 237 l 1
 153 237 l 1
 153 419 l 1
 46 419 l 1
 46 548 l 1
 153 548 l 1
 153 671 l 1
 296 671 l 1
 296 548 l 1
 400 548 l 1
 400 671 l 1
 544 671 l 1
 544 548 l 1
 650 548 l 1
 650 419 l 1
 544 419 l 1
 543 237 l 1
 650 237 l 1
 650 108 l 1
 544 108 l 1
 544 -15 l 1
 401 -15 l 1
 401 108 l 1
 296 108 l 1
 296 -15 l 1
 153 -15 l 1
 153 108 l 1
417 123 m 1025
168 123 m 1025
400 419 m 1
 296 419 l 1
 296 237 l 1
 400 237 l 1
 400 419 l 1
EndSplineSet
Validated: 1
EndChar

StartChar: plus
Encoding: 43 43 82
Width: 614
VWidth: 819
Flags: W
HStem: 263 129<46 234 380 568>
VStem: 234 146<67 263 392 589>
LayerCount: 2
Fore
SplineSet
380 263 m 1
 380 67 l 1
 234 67 l 1
 234 263 l 1
 46 263 l 1
 46 392 l 1
 234 392 l 1
 234 589 l 1
 380 589 l 1
 380 392 l 1
 568 392 l 1
 568 263 l 1
 380 263 l 1
EndSplineSet
Validated: 1
EndChar

StartChar: equal
Encoding: 61 61 83
Width: 634
VWidth: 819
Flags: W
HStem: 157 129<46 568> 370 129<46 568>
LayerCount: 2
Fore
SplineSet
568 157 m 1
 46 157 l 1
 46 286 l 1
 568 286 l 1
 568 157 l 1
568 370 m 1
 46 370 l 1
 46 499 l 1
 568 499 l 1
 568 370 l 1
EndSplineSet
Validated: 1
EndChar

StartChar: grave
Encoding: 96 96 84
Width: 327
Flags: W
HStem: 583 200
VStem: 32 264
LayerCount: 2
Fore
SplineSet
32 783 m 1
 155 783 l 1
 296 583 l 1
 172 583 l 1
 32 783 l 1
EndSplineSet
Validated: 1
EndChar

StartChar: braceleft
Encoding: 123 123 85
Width: 589
VWidth: 819
Flags: W
HStem: -15 129<308 523> 263 129<67 165> 542 129<308 523>
VStem: 165 358<-15 114 542 671> 165 143<114 263 392 542>
LayerCount: 2
Fore
SplineSet
523 671 m 1xf0
 523 542 l 1xf0
 308 542 l 1
 308 114 l 1xe8
 523 114 l 1
 523 -15 l 1
 165 -15 l 1xf0
 165 263 l 1
 67 263 l 1
 67 392 l 1
 165 392 l 1xe8
 165 671 l 1
 523 671 l 1xf0
EndSplineSet
Validated: 1
EndChar

StartChar: braceright
Encoding: 125 125 86
Width: 589
VWidth: 819
Flags: W
HStem: -15 129<67 282> 263 129<425 523> 542 129<67 282>
VStem: 67 358<-15 114 542 671> 282 143<114 263 392 542>
LayerCount: 2
Fore
SplineSet
67 671 m 1xf0
 425 671 l 1xf0
 425 392 l 1
 523 392 l 1
 523 263 l 1
 425 263 l 1xe8
 425 -15 l 1
 67 -15 l 1
 67 114 l 1xf0
 282 114 l 1
 282 542 l 1xe8
 67 542 l 1
 67 671 l 1xf0
EndSplineSet
Validated: 1
EndChar

StartChar: bar
Encoding: 124 124 87
Width: 737
Flags: W
VStem: 292 153<36 783>
LayerCount: 2
Fore
SplineSet
292 783 m 1
 445 783 l 1
 445 36 l 1
 292 36 l 1
 292 783 l 1
EndSplineSet
Validated: 1
EndChar

StartChar: less
Encoding: 60 60 88
Width: 532
VWidth: 819
Flags: W
LayerCount: 2
Fore
SplineSet
380 605 m 1
 486 605 l 1
 486 506 l 1
 221 328 l 1
 486 148 l 1
 486 50 l 1
 382 50 l 1
 46 279 l 1
 46 377 l 1
 380 605 l 1
EndSplineSet
Validated: 1
EndChar

StartChar: greater
Encoding: 62 62 89
Width: 532
VWidth: 819
Flags: W
LayerCount: 2
Fore
SplineSet
486 377 m 1
 486 279 l 1
 151 50 l 1
 46 50 l 1
 46 148 l 1
 311 328 l 1
 46 506 l 1
 46 605 l 1
 153 605 l 1
 486 377 l 1
EndSplineSet
Validated: 1
EndChar

StartChar: asciicircum
Encoding: 94 94 90
Width: 368
VWidth: 871
Flags: W
HStem: 486 185
VStem: 46 277
LayerCount: 2
Fore
SplineSet
138 671 m 1
 231 671 l 1
 323 560 l 1
 323 486 l 1
 301 486 280 486 258 486 c 2
 251 486 l 1
 182 561 l 1
 119 486 l 1
 112 486 l 2
 90 486 68 486 46 486 c 1
 46 561 l 1
 138 671 l 1
EndSplineSet
Validated: 1
EndChar

StartChar: asciitilde
Encoding: 126 126 91
Width: 614
VWidth: 819
Flags: W
HStem: 189 129<372 439> 337 129<175 243>
VStem: 46 129<189 337> 439 129<318 466>
LayerCount: 2
Fore
SplineSet
439 318 m 1
 439 466 l 1
 568 466 l 1
 568 189 l 1
 243 189 l 1
 243 337 l 1
 175 337 l 1
 175 189 l 1
 46 189 l 1
 46 466 l 1
 372 466 l 1
 372 318 l 1
 439 318 l 1
EndSplineSet
Validated: 1
EndChar

StartChar: at
Encoding: 64 64 92
Width: 696
Flags: W
HStem: 54 102<220 590> 212 74<334 368 448 476> 368 76<334 368> 500 100<220 476>
VStem: 106 114<156 500> 254 80<286 368> 368 80<286 368> 476 114<286 500>
LayerCount: 2
Fore
SplineSet
590 600 m 1
 590 212 l 1
 254 212 l 1
 254 444 l 1
 448 444 l 1
 448 286 l 1
 476 286 l 1
 476 500 l 1
 220 500 l 1
 220 156 l 1
 590 156 l 1
 590 54 l 1
 106 54 l 1
 106 600 l 1
 590 600 l 1
368 368 m 1
 334 368 l 1
 334 286 l 1
 368 286 l 1
 368 368 l 1
EndSplineSet
Validated: 1
EndChar

StartChar: asterisk
Encoding: 42 42 93
Width: 286
VWidth: 867
Flags: W
HStem: 452 219<76 111.344 112 175 175.656 211> 531 60<46 76 211 241>
VStem: 46 195<475 521.844 531 591 600.312 648> 112 63<452 474 648 671>
LayerCount: 2
Fore
SplineSet
194 671 m 1x90
 241 671 l 1xa0
 241 629 l 1
 231 617 221 603 211 591 c 1
 221 591 231 591 241 591 c 1
 241 531 l 1
 231 531 221 531 211 531 c 1x60
 221 519 231 506 241 494 c 1
 241 452 l 1xa0
 196 452 l 1
 189 460 182 467 175 475 c 1
 175 467 175 460 175 452 c 1
 112 452 l 1
 112 459 112 467 112 474 c 1x90
 105 467 98 459 91 452 c 1
 46 452 l 1xa0
 46 494 l 1
 56 506 66 519 76 531 c 1
 66 531 56 531 46 531 c 1
 46 591 l 1
 56 591 66 591 76 591 c 1x60
 66 603 56 617 46 629 c 1
 46 671 l 1xa0
 93 671 l 1
 99 664 106 655 112 648 c 1
 112 655 112 664 112 671 c 1
 175 671 l 1
 175 664 175 655 175 648 c 1
 181 655 188 664 194 671 c 1x90
EndSplineSet
Validated: 1
EndChar

StartChar: ampersand
Encoding: 38 38 94
Width: 696
VWidth: 819
Flags: W
HStem: -15 129<191 275> 263 129<519 650> 542 129<306 536>
VStem: 46 145<114 263> 161 145<392 542>
LayerCount: 2
Fore
SplineSet
650 392 m 1xe8
 650 263 l 1
 519 263 l 1
 650 80 l 1
 650 -15 l 1
 543 -15 l 1
 421 156 l 1
 421 -15 l 1
 46 -15 l 1
 46 392 l 1xf0
 161 392 l 1
 161 671 l 1
 536 671 l 1
 536 542 l 1
 306 542 l 1
 306 392 l 1
 650 392 l 1xe8
275 263 m 1
 191 263 l 1
 191 114 l 1
 275 114 l 1
 275 263 l 1
EndSplineSet
Validated: 1
EndChar

StartChar: exclamdown
Encoding: 161 161 95
Width: 200
VWidth: 565
Flags: W
HStem: 233 110<46 155>
VStem: 46 109<-212 185 233 343>
LayerCount: 2
Fore
SplineSet
46 -212 m 1
 46 185 l 1
 155 185 l 1
 155 -212 l 1
 46 -212 l 1
61 -197 m 1025
46 233 m 1
 46 343 l 1
 155 343 l 1
 155 233 l 1
 46 233 l 1
EndSplineSet
Validated: 1
EndChar

StartChar: questiondown
Encoding: 191 191 96
Width: 581
VWidth: 565
Flags: W
HStem: -220 109<167 536> 3 135<237 345> 3 109<167 237> 225 110<237 345>
VStem: 46 121<-111 3> 237 108<112 138 225 335>
LayerCount: 2
Fore
SplineSet
330 123 m 1025x9c
167 -111 m 1
 536 -111 l 1
 536 -220 l 1
 46 -220 l 1
 46 112 l 1
 237 112 l 1xbc
 237 121 237 129 237 138 c 1
 345 138 l 1
 345 3 l 1xdc
 167 3 l 1xbc
 167 -111 l 1
345 225 m 1
 237 225 l 1
 237 335 l 1
 345 335 l 1
 345 225 l 1
EndSplineSet
Validated: 1
EndChar

StartChar: periodcentered
Encoding: 183 183 97
Width: 276
Flags: W
HStem: 333 153<61 215>
VStem: 61 154<333 486>
LayerCount: 2
Fore
SplineSet
61 486 m 1
 215 486 l 1
 215 333 l 1
 61 333 l 1
 61 486 l 1
EndSplineSet
Validated: 1
EndChar

StartChar: uni00AD
Encoding: 173 173 98
Width: 450
VWidth: 819
Flags: W
HStem: 263 129<46 404>
LayerCount: 2
Fore
SplineSet
46 392 m 1
 404 392 l 1
 404 263 l 1
 46 263 l 1
 46 392 l 1
EndSplineSet
Validated: 1
EndChar

StartChar: plusminus
Encoding: 177 177 99
Width: 491
VWidth: 819
Flags: W
HStem: 67 104<46 445> 337 104<46 187 304 445>
VStem: 187 117<189 337 441 589>
LayerCount: 2
Fore
SplineSet
46 171 m 1
 445 171 l 1
 445 67 l 1
 46 67 l 1
 46 171 l 1
304 337 m 1
 304 189 l 1
 187 189 l 1
 187 337 l 1
 46 337 l 1
 46 441 l 1
 187 441 l 1
 187 589 l 1
 304 589 l 1
 304 441 l 1
 445 441 l 1
 445 337 l 1
 304 337 l 1
EndSplineSet
Validated: 1
EndChar

StartChar: acute
Encoding: 180 180 100
Width: 358
Flags: W
HStem: 583 200
VStem: 47 264
LayerCount: 2
Fore
SplineSet
187 783 m 1
 311 783 l 1
 170 583 l 1
 47 583 l 1
 187 783 l 1
EndSplineSet
Validated: 1
EndChar

StartChar: brokenbar
Encoding: 166 166 101
Width: 737
Flags: W
VStem: 292 153<36 364 456 783>
LayerCount: 2
Fore
SplineSet
445 36 m 1
 292 36 l 1
 292 364 l 1
 445 364 l 1
 445 36 l 1
292 783 m 1
 445 783 l 1
 445 456 l 1
 292 456 l 1
 292 783 l 1
EndSplineSet
Validated: 1
EndChar

StartChar: divide
Encoding: 247 247 102
Width: 696
VWidth: 819
Flags: HW
HStem: 83 129<284 413> 263 129<87 609> 443 129<284 413>
VStem: 284 129<83 212 443 572>
CounterMasks: 1 e0
LayerCount: 2
Fore
SplineSet
284 572 m 1
 413 572 l 1
 413 443 l 1
 284 443 l 1
 284 572 l 1
284 212 m 1
 413 212 l 1
 413 83 l 1
 284 83 l 1
 284 212 l 1
87 392 m 1
 609 392 l 1
 609 263 l 1
 87 263 l 1
 87 392 l 1
594 279 m 1025
EndSplineSet
Validated: 1
EndChar

StartChar: macron
Encoding: 175 175 103
Width: 696
VWidth: 888
Flags: W
HStem: 611 129<46 650>
LayerCount: 2
Fore
SplineSet
46 740 m 1
 650 740 l 1
 650 611 l 1
 46 611 l 1
 46 740 l 1
EndSplineSet
Validated: 1
EndChar

StartChar: copyright
Encoding: 169 169 104
Width: 696
VWidth: 819
Flags: W
HStem: -15 129<173 523> 181 100<325 475> 375 99<325 475> 542 129<173 523>
VStem: 46 127<114 542> 219 256<181 281 375 474> 219 106<281 375> 523 127<114 542>
LayerCount: 2
Fore
SplineSet
475 181 m 1xfd
 219 181 l 1
 219 474 l 1
 475 474 l 1
 475 375 l 1xfd
 325 375 l 1
 325 281 l 1xfb
 475 281 l 1
 475 181 l 1xfd
46 671 m 1
 650 671 l 1
 650 -15 l 1
 46 -15 l 1
 46 671 l 1
523 542 m 1
 173 542 l 1
 173 114 l 1
 523 114 l 1
 523 542 l 1
EndSplineSet
Validated: 1
EndChar

StartChar: multiply
Encoding: 215 215 105
Width: 783
VWidth: 819
Flags: W
LayerCount: 2
Fore
SplineSet
264 142 m 1
 264 160 264 181 264 199 c 2
 264 205 l 1
 370 328 l 1
 264 451 l 1
 264 513 l 1
 333 513 l 1
 435 396 l 1
 537 513 l 1
 606 513 l 1
 606 451 l 1
 501 328 l 1
 606 205 l 1
 606 199 l 2
 606 181 606 160 606 142 c 1
 538 142 l 1
 435 255 l 1
 333 142 l 1
 326 142 l 2
 306 142 284 142 264 142 c 1
EndSplineSet
Validated: 1
EndChar

StartChar: registered
Encoding: 174 174 106
Width: 696
VWidth: 819
Flags: W
HStem: -15 129<173 523> 387 86<308 384> 542 129<173 523>
VStem: 46 127<114 542> 216 257<292 361 387 473> 216 92<183 276 361 387> 523 127<114 542>
LayerCount: 2
Fore
SplineSet
473 227 m 2xfa
 473 213 473 197 473 183 c 1xfa
 402 183 l 1
 308 276 l 1
 308 183 l 1
 216 183 l 1xf6
 216 473 l 1
 473 473 l 1
 473 292 l 1
 453 292 433 292 413 292 c 1
 473 233 l 1
 473 227 l 2xfa
384 361 m 1
 384 387 l 1
 308 387 l 1
 308 361 l 1xf6
 384 361 l 1
46 671 m 1
 650 671 l 1
 650 -15 l 1
 46 -15 l 1
 46 671 l 1
523 542 m 1
 173 542 l 1
 173 114 l 1
 523 114 l 1
 523 542 l 1
EndSplineSet
Validated: 1
EndChar

StartChar: degree
Encoding: 176 176 107
Width: 358
Flags: W
HStem: 519 96<158 201> 687 96<158 201>
VStem: 61 97<615 687> 201 96<615 687>
LayerCount: 2
Fore
SplineSet
61 783 m 1
 297 783 l 1
 297 519 l 1
 61 519 l 1
 61 783 l 1
201 687 m 1
 158 687 l 1
 158 615 l 1
 201 615 l 1
 201 687 l 1
EndSplineSet
Validated: 1
EndChar

StartChar: mu
Encoding: 181 181 108
Width: 696
VWidth: 819
Flags: W
HStem: 260 129<191 513>
VStem: 46 145<-15 260 389 671> 513 137<389 671>
LayerCount: 2
Fore
SplineSet
46 671 m 1
 191 671 l 1
 191 389 l 1
 513 389 l 1
 513 671 l 1
 650 671 l 1
 650 260 l 1
 191 260 l 1
 191 -15 l 1
 46 -15 l 1
 46 671 l 1
EndSplineSet
Validated: 1
EndChar

StartChar: ordmasculine
Encoding: 186 186 109
Width: 389
Flags: W
HStem: 586 96<173 216> 723 96<173 216>
VStem: 77 96<682 723> 216 96<682 723>
LayerCount: 2
Fore
SplineSet
77 586 m 1
 77 819 l 1
 312 819 l 1
 312 586 l 1
 77 586 l 1
216 682 m 1
 216 723 l 1
 173 723 l 1
 173 682 l 1
 216 682 l 1
EndSplineSet
Validated: 1
EndChar

StartChar: cent
Encoding: 162 162 110
Width: 581
VWidth: 814
Flags: W
HStem: -61 227<218 361> 37 129<189 218 361 536> 479 187<218 361> 479 129<189 218 361 536>
VStem: 46 143<166 479> 218 143<-61 37 608 666>
LayerCount: 2
Fore
SplineSet
536 608 m 1x1c
 536 479 l 1
 189 479 l 1
 189 166 l 1
 536 166 l 1
 536 37 l 1
 361 37 l 1x5c
 361 -61 l 1
 218 -61 l 1x8c
 218 37 l 1
 46 37 l 1
 46 608 l 1
 218 608 l 1x5c
 218 627 218 647 218 666 c 1
 361 666 l 1x2c
 361 647 361 627 361 608 c 1
 536 608 l 1x1c
EndSplineSet
Validated: 1
EndChar

StartChar: yen
Encoding: 165 165 111
Width: 696
VWidth: 819
Flags: W
HStem: 140 80<128 273 423 568> 230 72<128 273 423 568>
VStem: 273 150<-15 140 220 230 302 322>
LayerCount: 2
Fore
SplineSet
542 671 m 1
 650 671 l 1
 650 573 l 1
 423 322 l 1
 423 302 l 1
 568 302 l 1
 568 230 l 1
 423 230 l 1
 423 220 l 1
 568 220 l 1
 568 140 l 1
 423 140 l 1
 423 -15 l 1
 273 -15 l 1
 273 140 l 1
 128 140 l 1
 128 220 l 1
 273 220 l 1
 273 230 l 1
 128 230 l 1
 128 302 l 1
 273 302 l 1
 273 322 l 1
 46 574 l 1
 46 671 l 1
 154 671 l 1
 348 458 l 1
 542 671 l 1
EndSplineSet
Validated: 1
EndChar

StartChar: uni00B2
Encoding: 178 178 112
Width: 358
Flags: W
HStem: 472 73<139 297> 592 73<139 219> 711 72<61 219>
VStem: 61 78<545 592> 219 78<665 711>
LayerCount: 2
Fore
SplineSet
139 545 m 1
 297 545 l 1
 297 472 l 1
 61 472 l 1
 61 665 l 1
 219 665 l 1
 219 711 l 1
 61 711 l 1
 61 783 l 1
 297 783 l 1
 297 592 l 1
 139 592 l 1
 139 545 l 1
EndSplineSet
Validated: 1
EndChar

StartChar: uni00B3
Encoding: 179 179 113
Width: 358
Flags: W
HStem: 480 72<61 218> 595 71<95 218> 712 71<61 218>
VStem: 61 236<480 552 712 783> 218 79<552 595 666 712>
LayerCount: 2
Fore
SplineSet
61 783 m 1xf0
 297 783 l 1
 297 480 l 1
 61 480 l 1
 61 552 l 1xf0
 218 552 l 1
 218 595 l 1
 95 595 l 1
 95 666 l 1
 218 666 l 1
 218 712 l 1xe8
 61 712 l 1
 61 783 l 1xf0
EndSplineSet
Validated: 1
EndChar

StartChar: uni00B9
Encoding: 185 185 114
Width: 358
Flags: W
HStem: 478 72<61 141 219 297> 712 71<61 141>
VStem: 141 78<550 712>
LayerCount: 2
Fore
SplineSet
141 712 m 1
 61 712 l 1
 61 783 l 1
 219 783 l 1
 219 550 l 1
 297 550 l 1
 297 478 l 1
 61 478 l 1
 61 550 l 1
 141 550 l 1
 141 712 l 1
EndSplineSet
Validated: 1
EndChar

StartChar: logicalnot
Encoding: 172 172 115
Width: 548
VWidth: 806
Flags: W
HStem: 251 129<46 374>
VStem: 374 129<153 251>
LayerCount: 2
Fore
SplineSet
503 380 m 1
 503 153 l 1
 374 153 l 1
 374 251 l 1
 46 251 l 1
 46 380 l 1
 503 380 l 1
61 365 m 1025
EndSplineSet
Validated: 1
EndChar

StartChar: sterling
Encoding: 163 163 116
Width: 696
VWidth: 819
Flags: W
HStem: -15 129<272 650> 263 129<46 128 272 354> 542 129<272 467>
VStem: 128 144<114 263 392 542>
LayerCount: 2
Fore
SplineSet
46 263 m 1
 46 392 l 1
 128 392 l 1
 129 671 l 1
 467 671 l 1
 467 542 l 1
 272 542 l 1
 272 392 l 1
 354 392 l 1
 354 263 l 1
 272 263 l 1
 272 114 l 1
 650 114 l 1
 650 -15 l 1
 127 -15 l 1
 130 263 l 1
 46 263 l 1
EndSplineSet
Validated: 1
EndChar

StartChar: currency
Encoding: 164 164 117
Width: 696
VWidth: 819
Flags: W
HStem: 108 129<255 441> 419 129<255 441>
VStem: 128 127<237 419> 441 127<237 419>
LayerCount: 2
Fore
SplineSet
542 630 m 1
 650 630 l 1
 650 532 l 1
 568 449 l 1
 568 207 l 1
 650 122 l 1
 650 26 l 1
 544 26 l 1
 468 108 l 1
 228 108 l 1
 153 26 l 1
 46 26 l 1
 46 123 l 1
 128 207 l 1
 128 449 l 1
 46 534 l 1
 46 630 l 1
 154 630 l 1
 228 548 l 1
 468 548 l 1
 542 630 l 1
441 419 m 1
 255 419 l 1
 255 237 l 1
 441 237 l 1
 441 419 l 1
EndSplineSet
Validated: 1
EndChar

StartChar: guillemotleft
Encoding: 171 171 118
Width: 614
VWidth: 819
Flags: W
LayerCount: 2
Fore
SplineSet
496 547 m 1
 568 547 l 1
 568 466 l 1
 411 328 l 1
 568 189 l 1
 568 109 l 1
 496 109 l 1
 292 289 l 1
 292 367 l 1
 496 547 l 1
250 547 m 1
 323 547 l 1
 323 466 l 1
 165 328 l 1
 323 189 l 1
 323 109 l 1
 250 109 l 1
 46 289 l 1
 46 367 l 1
 250 547 l 1
EndSplineSet
Validated: 1
EndChar

StartChar: guillemotright
Encoding: 187 187 119
Width: 614
VWidth: 819
Flags: W
LayerCount: 2
Fore
SplineSet
323 367 m 1
 323 289 l 1
 119 109 l 1
 46 109 l 1
 46 189 l 1
 204 328 l 1
 46 466 l 1
 46 547 l 1
 119 547 l 1
 323 367 l 1
568 367 m 1
 568 289 l 1
 365 109 l 1
 292 109 l 1
 292 189 l 1
 450 328 l 1
 292 466 l 1
 292 547 l 1
 365 547 l 1
 568 367 l 1
EndSplineSet
Validated: 1
EndChar

StartChar: ordfeminine
Encoding: 170 170 120
Width: 389
Flags: W
HStem: 581 66<195 208>
VStem: 77 249
LayerCount: 2
Fore
SplineSet
208 647 m 1
 202 666 l 1
 195 647 l 1
 208 647 l 1
77 540 m 1
 173 768 l 5
 220 768 l 6
 230 768 l 1
 326 540 l 1
 304 540 l 2
 288 540 255 540 255 540 c 1
 247 553 239 568 231 581 c 1
 172 581 l 1
 165 568 157 553 150 540 c 1
 77 540 l 1
EndSplineSet
Validated: 1
EndChar

StartChar: paragraph
Encoding: 182 182 121
Width: 696
VWidth: 819
Flags: W
HStem: 260 129<183 423> 542 129<183 423 527 546>
VStem: 46 137<389 542> 423 104<81 260 389 542> 546 104<81 542>
LayerCount: 2
Fore
SplineSet
527 81 m 1
 546 81 l 1
 546 542 l 1
 527 542 l 1
 527 81 l 1
423 260 m 1
 46 260 l 1
 46 671 l 1
 650 671 l 1
 650 -15 l 1
 423 -15 l 1
 423 260 l 1
423 542 m 1
 183 542 l 1
 183 389 l 1
 423 389 l 1
 423 542 l 1
EndSplineSet
Validated: 1
EndChar

StartChar: cedilla
Encoding: 184 184 122
Width: 167
Flags: W
HStem: -220 80<-15 96> -101 116<-15 65> -101 79<65 96>
VStem: -15 80<-22 15> 96 87<-140 -101>
LayerCount: 2
Fore
SplineSet
0 0 m 1025x98
183 -22 m 1xb8
 183 -220 l 1
 -15 -220 l 1
 -15 -140 l 1
 96 -140 l 1
 96 -101 l 1xb8
 -15 -101 l 1
 -15 15 l 1
 65 15 l 1xd8
 65 3 65 -10 65 -22 c 1
 183 -22 l 1xb8
EndSplineSet
Validated: 1
EndChar

StartChar: dieresis
Encoding: 168 168 123
Width: 451
VWidth: 889
Flags: W
HStem: 714 121<96 225 276 406>
VStem: 96 129<714 835> 276 130<714 835>
LayerCount: 2
Fore
SplineSet
276 835 m 1
 406 835 l 1
 406 714 l 1
 276 714 l 1
 276 835 l 1
96 835 m 1
 225 835 l 1
 225 714 l 1
 96 714 l 1
 96 835 l 1
EndSplineSet
Validated: 1
EndChar

StartChar: onequarter
Encoding: 188 188 124
Width: 696
VWidth: 888
Flags: W
HStem: 99 72<300 382> 292 72<87 609> 366 71<225 305 383 461> 599 72<225 305>
VStem: 225 75<171 288> 305 78<437 599> 382 79<-15 99 171 288>
LayerCount: 2
Fore
SplineSet
461 288 m 1xfa
 461 -15 l 1
 382 -15 l 1
 382 99 l 1
 225 99 l 1
 225 288 l 1
 300 288 l 1
 300 171 l 1
 382 171 l 1
 382 288 l 1
 461 288 l 1xfa
305 599 m 1xfc
 225 599 l 1
 225 671 l 1
 383 671 l 1
 383 437 l 1xfc
 461 437 l 1
 461 366 l 1xfa
 225 366 l 1
 225 437 l 1
 305 437 l 1
 305 599 l 1xfc
87 364 m 1
 609 364 l 1
 609 292 l 1
 87 292 l 1
 87 364 l 1
594 307 m 1025
EndSplineSet
Validated: 1
EndChar

StartChar: onehalf
Encoding: 189 189 125
Width: 696
VWidth: 888
Flags: W
HStem: -15 72<303 461> 104 73<303 383> 223 141<225 383> 292 72<87 225 461 609> 366 71<225 305 383 461> 599 72<225 305>
VStem: 225 78<57 104> 305 78<437 599> 383 78<177 223>
LayerCount: 2
Fore
SplineSet
594 307 m 1025xce
87 364 m 1xde80
 609 364 l 1
 609 292 l 1
 461 292 l 1xde80
 461 104 l 1
 303 104 l 1
 303 57 l 1
 461 57 l 1
 461 -15 l 1
 225 -15 l 1
 225 177 l 1
 383 177 l 1
 383 223 l 1
 225 223 l 1xee80
 225 292 l 1
 87 292 l 1
 87 364 l 1xde80
305 599 m 1xcf
 225 599 l 1
 225 671 l 1
 383 671 l 1xce80
 383 437 l 1xcf
 461 437 l 1
 461 366 l 1xce80
 225 366 l 1
 225 437 l 1
 305 437 l 1
 305 599 l 1xcf
EndSplineSet
Validated: 1
EndChar

StartChar: threequarters
Encoding: 190 190 126
Width: 696
VWidth: 888
Flags: W
HStem: 99 72<300 382> 292 72<87 609> 368 71<225 382> 482 71<259 382> 599 72<225 382>
VStem: 225 75<171 288> 382 79<-15 99 171 288 439 482 553 599>
LayerCount: 2
Fore
SplineSet
225 671 m 1
 461 671 l 1
 461 368 l 1
 225 368 l 1
 225 439 l 1
 382 439 l 1
 382 482 l 1
 259 482 l 1
 259 553 l 1
 382 553 l 1
 382 599 l 1
 225 599 l 1
 225 671 l 1
461 288 m 1
 461 -15 l 1
 382 -15 l 1
 382 99 l 1
 225 99 l 1
 225 288 l 1
 300 288 l 1
 300 171 l 1
 382 171 l 1
 382 288 l 1
 461 288 l 1
87 364 m 1
 609 364 l 1
 609 292 l 1
 87 292 l 1
 87 364 l 1
594 307 m 1025
EndSplineSet
Validated: 1
EndChar

StartChar: Agrave
Encoding: 192 192 127
Width: 741
VWidth: 819
Flags: W
HStem: 0 21G<61 198 558 695> 236 122<198 558> 534 121<198 558>
VStem: 61 137<0 236 358 534> 558 137<0 236 358 534>
LayerCount: 2
Fore
SplineSet
558 358 m 5
 558 534 l 5
 198 534 l 5
 198 358 l 5
 558 358 l 5
61 655 m 5
 695 655 l 5
 695 0 l 5
 558 0 l 5
 558 236 l 5
 198 236 l 5
 198 0 l 5
 61 0 l 5
 61 655 l 5
386 659 m 1
 225 819 l 1
 364 819 l 1
 525 659 l 1
 386 659 l 1
EndSplineSet
Validated: 1
EndChar

StartChar: Aacute
Encoding: 193 193 128
Width: 741
VWidth: 819
Flags: W
HStem: 0 21G<61 198 558 695> 236 122<198 558> 534 121<198 558>
VStem: 61 137<0 236 358 534> 558 137<0 236 358 534>
LayerCount: 2
Fore
SplineSet
558 358 m 5
 558 534 l 5
 198 534 l 5
 198 358 l 5
 558 358 l 5
61 655 m 5
 695 655 l 5
 695 0 l 5
 558 0 l 5
 558 236 l 5
 198 236 l 5
 198 0 l 5
 61 0 l 5
 61 655 l 5
231 659 m 1
 391 819 l 1
 530 819 l 1
 369 659 l 1
 231 659 l 1
EndSplineSet
Validated: 1
EndChar

StartChar: Acircumflex
Encoding: 194 194 129
Width: 741
VWidth: 819
Flags: W
HStem: 0 21G<61 198 558 695> 236 122<198 558> 534 121<198 558>
VStem: 61 137<0 236 358 534> 558 137<0 236 358 534>
LayerCount: 2
Fore
SplineSet
558 358 m 5
 558 534 l 5
 198 534 l 5
 198 358 l 5
 558 358 l 5
61 655 m 5
 695 655 l 5
 695 0 l 5
 558 0 l 5
 558 236 l 5
 198 236 l 5
 198 0 l 5
 61 0 l 5
 61 655 l 5
266 720 m 1
 337 797 l 1
 412 797 l 1
 482 718 l 1
 482 713 l 2
 482 696 482 679 482 662 c 1
 423 662 l 1
 374 710 l 1
 329 662 l 1
 321 662 l 2
 266 662 l 1
 266 679 266 697 266 714 c 2
 266 720 l 1
EndSplineSet
Validated: 1
EndChar

StartChar: Atilde
Encoding: 195 195 130
Width: 741
VWidth: 819
Flags: W
HStem: 0 21G<61 198 558 695> 236 122<198 558> 534 121<198 558> 660 128<254 330 338 415 424 501>
VStem: 61 137<0 236 358 534> 254 76<660 719> 424 77<730 788> 558 137<0 236 358 534>
LayerCount: 2
Fore
SplineSet
558 358 m 5
 558 534 l 5
 198 534 l 5
 198 358 l 5
 558 358 l 5
61 655 m 5
 695 655 l 5
 695 0 l 5
 558 0 l 5
 558 236 l 5
 198 236 l 5
 198 0 l 5
 61 0 l 5
 61 655 l 5
415 730 m 1
 424 730 l 1
 424 749 424 769 424 788 c 1
 501 788 l 1
 501 660 l 1
 338 660 l 1
 338 679 338 700 338 719 c 1
 330 719 l 1
 330 700 330 679 330 660 c 1
 254 660 l 1
 254 788 l 1
 415 788 l 1
 415 769 415 749 415 730 c 1
EndSplineSet
Validated: 1
EndChar

StartChar: Adieresis
Encoding: 196 196 131
Width: 741
VWidth: 819
InSpiro: 1
Flags: W
HStem: 0 21G<61 198 558 695> 236 122<198 558> 534 121<198 558> 668 120<209 349 406 546>
VStem: 61 137<0 236 358 534> 209 140<668 788> 406 140<668 788> 558 137<0 236 358 534>
LayerCount: 2
Fore
SplineSet
558 358 m 1
 558 534 l 1
 198 534 l 1
 198 358 l 1
 558 358 l 1
  Spiro
    558 358 v
    558 534 v
    198 534 v
    198 358 v
    0 0 z
  EndSpiro
61 655 m 1
 695 655 l 1
 695 0 l 1
 558 0 l 1
 558 236 l 1
 198 236 l 1
 198 0 l 1
 61 0 l 1
 61 655 l 1
  Spiro
    61 655 v
    695 655 v
    695 0 v
    558 0 v
    558 236 v
    198 236 v
    198 0 v
    61 0 v
    0 0 z
  EndSpiro
406 668 m 1
 406 788 l 1
 546 788 l 1
 546 668 l 1
 406 668 l 1
  Spiro
    406 668 v
    406 788 v
    546 788 v
    546 668 v
    0 0 z
  EndSpiro
209 668 m 1
 209 788 l 1
 349 788 l 1
 349 668 l 1
 209 668 l 1
  Spiro
    209 668 v
    209 788 v
    349 788 v
    349 668 v
    0 0 z
  EndSpiro
EndSplineSet
Validated: 1
EndChar

StartChar: Aring
Encoding: 197 197 132
Width: 741
VWidth: 819
Flags: W
HStem: 0 21G<61 198 558 695> 236 122<198 558> 534 121<198 558> 659 160<299 372 383 456>
VStem: 61 137<0 236 358 534> 299 73<726 753> 383 73<726 753> 558 137<0 236 358 534>
LayerCount: 2
Fore
SplineSet
558 358 m 5
 558 534 l 5
 198 534 l 5
 198 358 l 5
 558 358 l 5
61 655 m 5
 695 655 l 5
 695 0 l 5
 558 0 l 5
 558 236 l 5
 198 236 l 5
 198 0 l 5
 61 0 l 5
 61 655 l 5
299 659 m 1
 299 819 l 1
 456 819 l 1
 456 659 l 1
 299 659 l 1
383 726 m 1
 383 753 l 1
 372 753 l 1
 372 726 l 1
 383 726 l 1
EndSplineSet
Validated: 1
EndChar

StartChar: AE
Encoding: 198 198 133
Width: 969
VWidth: 819
Flags: W
HStem: 0 129<579 908> 259 130<209 425 579 764> 534 121<209 425 579 908>
VStem: 61 148<0 259 389 534> 425 154<129 259 389 534>
LayerCount: 2
Fore
SplineSet
209 389 m 5
 425 389 l 5
 425 534 l 5
 209 534 l 5
 209 389 l 5
579 260 m 5
 579 129 l 5
 908 129 l 5
 908 0 l 5
 425 0 l 5
 425 259 l 5
 209 259 l 5
 209 0 l 5
 61 0 l 5
 64 655 l 5
 908 655 l 5
 908 535 l 5
 579 534 l 5
 579 389 l 5
 764 389 l 5
 764 260 l 5
 579 260 l 5
EndSplineSet
Validated: 1
EndChar

StartChar: Ccedilla
Encoding: 199 199 134
Width: 757
VWidth: 819
Flags: W
HStem: -205 80<273 394> -86 80<360 394> 0 129<207 273 360 696> 526 129<207 696>
VStem: 61 146<129 526> 273 215<-205 -125 -86 -6> 394 94<-125 -86>
LayerCount: 2
Fore
SplineSet
290 0 m 1025xf8
207 129 m 1
 696 129 l 1
 696 0 l 1
 360 0 l 1
 360 -6 l 1
 488 -6 l 1
 488 -205 l 1
 273 -205 l 1
 273 -125 l 1xfc
 394 -125 l 1
 394 -86 l 1xfa
 273 -86 l 1
 273 0 l 1xfc
 61 0 l 1
 61 655 l 1
 696 655 l 1
 696 526 l 1
 207 526 l 1
 207 129 l 1
EndSplineSet
Validated: 1
EndChar

StartChar: Egrave
Encoding: 200 200 135
Width: 757
VWidth: 819
Flags: W
HStem: 0 129<209 696> 260 129<209 529> 534 121<209 696>
VStem: 61 148<129 260 389 534>
LayerCount: 2
Fore
SplineSet
395 659 m 1
 236 819 l 1
 373 819 l 1
 534 659 l 1
 395 659 l 1
61 655 m 1
 696 655 l 1
 696 535 l 1
 209 534 l 1
 209 389 l 1
 529 389 l 1
 529 260 l 1
 209 260 l 1
 209 129 l 1
 696 129 l 1
 696 0 l 1
 61 0 l 1
 61 655 l 1
EndSplineSet
Validated: 1
EndChar

StartChar: Eacute
Encoding: 201 201 136
Width: 757
VWidth: 819
Flags: W
HStem: 0 129<209 696> 260 129<209 529> 534 121<209 696>
VStem: 61 148<129 260 389 534>
LayerCount: 2
Fore
SplineSet
229 659 m 1
 389 819 l 1
 528 819 l 1
 368 659 l 1
 229 659 l 1
61 655 m 1
 696 655 l 1
 696 535 l 1
 209 534 l 1
 209 389 l 1
 529 389 l 1
 529 260 l 1
 209 260 l 1
 209 129 l 1
 696 129 l 1
 696 0 l 1
 61 0 l 1
 61 655 l 1
EndSplineSet
Validated: 1
EndChar

StartChar: Ecircumflex
Encoding: 202 202 137
Width: 757
VWidth: 819
Flags: W
HStem: 0 129<209 696> 260 129<209 529> 534 121<209 696>
VStem: 61 148<129 260 389 534>
LayerCount: 2
Fore
SplineSet
259 720 m 1
 330 797 l 1
 404 797 l 1
 474 718 l 1
 474 713 l 2
 474 696 474 679 474 662 c 1
 415 662 l 1
 366 710 l 1
 321 662 l 1
 313 662 l 6
 259 662 l 5
 259 679 259 697 259 714 c 2
 259 720 l 1
61 655 m 1
 696 655 l 1
 696 535 l 1
 209 534 l 1
 209 389 l 1
 529 389 l 1
 529 260 l 1
 209 260 l 1
 209 129 l 1
 696 129 l 1
 696 0 l 1
 61 0 l 1
 61 655 l 1
EndSplineSet
Validated: 1
EndChar

StartChar: Edieresis
Encoding: 203 203 138
Width: 757
VWidth: 819
Flags: W
HStem: 0 129<209 696> 260 129<209 529> 534 121<209 696> 668 120<211 351 407 547>
VStem: 61 148<129 260 389 534> 211 140<668 788> 407 140<668 788>
LayerCount: 2
Fore
SplineSet
407 668 m 1
 407 788 l 1
 547 788 l 1
 547 668 l 1
 407 668 l 1
211 668 m 1
 211 788 l 1
 351 788 l 1
 351 668 l 1
 211 668 l 1
61 655 m 1
 696 655 l 1
 696 535 l 1
 209 534 l 1
 209 389 l 1
 529 389 l 1
 529 260 l 1
 209 260 l 1
 209 129 l 1
 696 129 l 1
 696 0 l 1
 61 0 l 1
 61 655 l 1
EndSplineSet
Validated: 1
EndChar

StartChar: Igrave
Encoding: 204 204 139
Width: 741
VWidth: 819
Flags: W
HStem: 0 129<61 304 462 696> 526 129<61 304 462 696>
VStem: 304 158<129 526>
LayerCount: 2
Fore
SplineSet
61 129 m 1
 304 129 l 1
 304 526 l 1
 61 526 l 1
 61 655 l 1
 696 655 l 1
 696 526 l 1
 462 526 l 1
 462 129 l 1
 696 129 l 1
 696 0 l 1
 61 0 l 1
 61 129 l 1
395 659 m 1
 236 819 l 1
 373 819 l 1
 534 659 l 1
 395 659 l 1
EndSplineSet
Validated: 1
EndChar

StartChar: Iacute
Encoding: 205 205 140
Width: 757
VWidth: 819
Flags: W
HStem: 0 129<61 304 462 696> 526 129<61 304 462 696>
VStem: 304 158<129 526>
LayerCount: 2
Fore
SplineSet
229 659 m 1
 389 819 l 1
 528 819 l 1
 368 659 l 1
 229 659 l 1
61 129 m 1
 304 129 l 1
 304 526 l 1
 61 526 l 1
 61 655 l 1
 696 655 l 1
 696 526 l 1
 462 526 l 1
 462 129 l 1
 696 129 l 1
 696 0 l 1
 61 0 l 1
 61 129 l 1
EndSplineSet
Validated: 1
EndChar

StartChar: Icircumflex
Encoding: 206 206 141
Width: 757
VWidth: 819
Flags: W
HStem: 0 129<61 304 462 696> 526 129<61 304 462 696>
VStem: 304 158<129 526>
LayerCount: 2
Fore
SplineSet
272 720 m 1
 343 797 l 1
 418 797 l 1
 487 718 l 1
 487 713 l 2
 487 696 487 679 487 662 c 1
 428 662 l 1
 379 710 l 1
 334 662 l 1
 327 662 l 6
 272 662 l 1
 272 679 272 697 272 714 c 2
 272 720 l 1
61 129 m 1
 304 129 l 1
 304 526 l 1
 61 526 l 1
 61 655 l 1
 696 655 l 1
 696 526 l 1
 462 526 l 1
 462 129 l 1
 696 129 l 1
 696 0 l 1
 61 0 l 1
 61 129 l 1
EndSplineSet
Validated: 1
EndChar

StartChar: Idieresis
Encoding: 207 207 142
Width: 757
VWidth: 819
Flags: W
HStem: 0 129<61 304 462 696> 526 129<61 304 462 696> 668 120<211 351 407 547>
VStem: 211 140<668 788> 304 158<129 526> 407 140<668 788>
LayerCount: 2
Fore
SplineSet
61 129 m 1xe8
 304 129 l 1
 304 526 l 1
 61 526 l 1
 61 655 l 1
 696 655 l 1
 696 526 l 1
 462 526 l 1
 462 129 l 1
 696 129 l 1
 696 0 l 1
 61 0 l 1
 61 129 l 1xe8
407 668 m 1xe4
 407 788 l 1
 547 788 l 1
 547 668 l 1
 407 668 l 1xe4
211 668 m 1xf0
 211 788 l 1
 351 788 l 1
 351 668 l 1
 211 668 l 1xf0
EndSplineSet
Validated: 1
EndChar

StartChar: Eth
Encoding: 208 208 143
Width: 757
VWidth: 819
Flags: W
HStem: 0 129<207 439> 263 129<207 384> 526 129<207 439>
VStem: 61 146<129 263 392 526> 551 145<213 442>
CounterMasks: 1 e0
LayerCount: 2
Fore
SplineSet
384 392 m 1
 384 263 l 1
 207 263 l 1
 207 129 l 1
 439 129 l 1
 551 213 l 1
 551 442 l 1
 439 526 l 1
 207 526 l 1
 207 392 l 1
 384 392 l 1
368 279 m 1025
61 0 m 1
 61 655 l 1
 514 655 l 1
 696 522 l 1
 696 133 l 1
 514 0 l 1
 61 0 l 1
EndSplineSet
Validated: 1
EndChar

StartChar: Ntilde
Encoding: 209 209 144
Width: 757
VWidth: 819
Flags: W
HStem: 0 21G<61 210 574 696> 635 20G<61 180 550 696> 660 128<259 335 343 419 429 505>
VStem: 61 149<0 455> 259 76<660 719> 429 76<730 788> 551 145<203 655>
LayerCount: 2
Fore
SplineSet
419 730 m 1
 429 730 l 1
 429 749 429 769 429 788 c 1
 505 788 l 1
 505 660 l 1
 343 660 l 1
 343 679 343 700 343 719 c 1
 335 719 l 1
 335 700 335 679 335 660 c 1
 259 660 l 1
 259 788 l 1
 419 788 l 1
 419 769 419 749 419 730 c 1
696 0 m 1
 577 0 l 2
 571 0 566 2 562 4 c 0
 557 7 554 10 549 14 c 0
 538 23 524 38 509 55 c 0
 423 152 274 363 209 455 c 1
 210 0 l 1
 61 0 l 1
 61 655 l 1
 177 655 l 2
 183 655 189 653 193 651 c 0
 199 648 204 645 210 641 c 0
 223 632 238 617 254 600 c 0
 342 505 488 297 551 203 c 1
 550 655 l 1
 696 655 l 1
 696 0 l 1
EndSplineSet
Validated: 1
EndChar

StartChar: Ograve
Encoding: 210 210 145
Width: 757
VWidth: 819
Flags: W
HStem: 0 129<207 551> 526 129<207 551>
VStem: 61 146<129 526> 551 145<129 526>
LayerCount: 2
Fore
SplineSet
395 659 m 1
 236 819 l 1
 373 819 l 1
 534 659 l 1
 395 659 l 1
61 0 m 1
 61 655 l 1
 696 655 l 1
 696 0 l 1
 61 0 l 1
551 129 m 1
 551 526 l 1
 207 526 l 1
 207 129 l 1
 551 129 l 1
EndSplineSet
Validated: 1
EndChar

StartChar: Oacute
Encoding: 211 211 146
Width: 757
VWidth: 819
Flags: W
HStem: 0 129<207 551> 526 129<207 551>
VStem: 61 146<129 526> 551 145<129 526>
LayerCount: 2
Fore
SplineSet
229 659 m 1
 389 819 l 1
 528 819 l 1
 368 659 l 1
 229 659 l 1
61 0 m 1
 61 655 l 1
 696 655 l 1
 696 0 l 1
 61 0 l 1
551 129 m 1
 551 526 l 1
 207 526 l 1
 207 129 l 1
 551 129 l 1
EndSplineSet
Validated: 1
EndChar

StartChar: Ocircumflex
Encoding: 212 212 147
Width: 757
VWidth: 819
Flags: W
HStem: 0 129<207 551> 526 129<207 551>
VStem: 61 146<129 526> 551 145<129 526>
LayerCount: 2
Fore
SplineSet
61 0 m 1
 61 655 l 1
 696 655 l 1
 696 0 l 1
 61 0 l 1
551 129 m 1
 551 526 l 1
 207 526 l 1
 207 129 l 1
 551 129 l 1
259 720 m 1
 330 797 l 1
 404 797 l 1
 474 718 l 1
 474 713 l 2
 474 696 474 679 474 662 c 1
 415 662 l 1
 366 710 l 1
 321 662 l 1
 313 662 l 6
 259 662 l 5
 259 679 259 697 259 714 c 2
 259 720 l 1
EndSplineSet
Validated: 1
EndChar

StartChar: Odieresis
Encoding: 214 214 148
Width: 757
VWidth: 819
Flags: W
HStem: 0 129<207 551> 526 129<207 551> 668 120<211 351 407 547>
VStem: 61 146<129 526> 211 140<668 788> 407 140<668 788> 551 145<129 526>
LayerCount: 2
Fore
SplineSet
407 668 m 1
 407 788 l 1
 547 788 l 1
 547 668 l 1
 407 668 l 1
211 668 m 1
 211 788 l 1
 351 788 l 1
 351 668 l 1
 211 668 l 1
61 0 m 1
 61 655 l 1
 696 655 l 1
 696 0 l 1
 61 0 l 1
551 129 m 1
 551 526 l 1
 207 526 l 1
 207 129 l 1
 551 129 l 1
EndSplineSet
Validated: 1
EndChar

StartChar: Otilde
Encoding: 213 213 149
Width: 757
VWidth: 819
Flags: W
HStem: 0 129<207 551> 526 129<207 551> 660 128<258 333 342 418 428 504>
VStem: 61 146<129 526> 258 75<660 719> 428 76<730 788> 551 145<129 526>
LayerCount: 2
Fore
SplineSet
61 0 m 1
 61 655 l 1
 696 655 l 1
 696 0 l 1
 61 0 l 1
551 129 m 1
 551 526 l 1
 207 526 l 1
 207 129 l 1
 551 129 l 1
418 730 m 1
 428 730 l 1
 428 749 428 769 428 788 c 1
 504 788 l 1
 504 660 l 1
 342 660 l 1
 342 679 342 700 342 719 c 1
 333 719 l 1
 333 700 333 679 333 660 c 1
 258 660 l 1
 258 788 l 1
 418 788 l 1
 418 769 418 749 418 730 c 1
EndSplineSet
Validated: 1
EndChar

StartChar: Oslash
Encoding: 216 216 150
Width: 757
VWidth: 819
Flags: W
HStem: 0 129<312 551> 526 129<207 442>
VStem: 61 146<208 526> 551 145<129 447>
LayerCount: 2
Fore
SplineSet
551 129 m 1
 551 447 l 1
 312 129 l 1
 551 129 l 1
442 526 m 1
 207 526 l 1
 207 208 l 1
 442 526 l 1
61 0 m 1
 61 655 l 1
 696 655 l 1
 696 0 l 1
 61 0 l 1
EndSplineSet
Validated: 1
EndChar

StartChar: Ugrave
Encoding: 217 217 151
Width: 757
VWidth: 819
Flags: W
HStem: 0 129<205 553> 635 20G<61 205 553 696>
VStem: 61 144<129 655> 553 143<129 655>
LayerCount: 2
Fore
SplineSet
395 659 m 1
 233 819 l 1
 373 819 l 1
 536 659 l 1
 395 659 l 1
61 0 m 1
 61 655 l 1
 205 655 l 1
 205 129 l 1
 553 129 l 1
 553 655 l 1
 696 655 l 1
 696 0 l 1
 61 0 l 1
EndSplineSet
Validated: 1
EndChar

StartChar: Uacute
Encoding: 218 218 152
Width: 757
VWidth: 819
Flags: W
HStem: 0 129<205 553> 635 20G<61 205 553 696>
VStem: 61 144<129 655> 553 143<129 655>
LayerCount: 2
Fore
SplineSet
228 659 m 1
 389 819 l 1
 529 819 l 1
 368 659 l 1
 228 659 l 1
61 0 m 1
 61 655 l 1
 205 655 l 1
 205 129 l 1
 553 129 l 1
 553 655 l 1
 696 655 l 1
 696 0 l 1
 61 0 l 1
EndSplineSet
Validated: 1
EndChar

StartChar: Ucircumflex
Encoding: 219 219 153
Width: 757
VWidth: 819
Flags: W
HStem: 0 129<205 553> 635 20G<61 205 553 696>
VStem: 61 144<129 655> 553 143<129 655>
LayerCount: 2
Fore
SplineSet
258 720 m 1
 330 797 l 1
 404 797 l 1
 475 718 l 1
 475 713 l 2
 475 696 475 679 475 662 c 1
 416 662 l 1
 366 710 l 1
 321 662 l 1
 312 662 l 6
 258 662 l 1
 258 679 258 697 258 714 c 2
 258 720 l 1
61 0 m 1
 61 655 l 1
 205 655 l 1
 205 129 l 1
 553 129 l 1
 553 655 l 1
 696 655 l 1
 696 0 l 1
 61 0 l 1
EndSplineSet
Validated: 1
EndChar

StartChar: Udieresis
Encoding: 220 220 154
Width: 757
VWidth: 819
Flags: W
HStem: 0 129<205 553> 635 20G<61 205 553 696> 668 120<209 351 407 549>
VStem: 61 144<129 655> 209 142<668 788> 407 142<668 788> 553 143<129 655>
LayerCount: 2
Fore
SplineSet
407 668 m 1
 407 788 l 1
 549 788 l 1
 549 668 l 1
 407 668 l 1
209 668 m 1
 209 788 l 1
 351 788 l 1
 351 668 l 1
 209 668 l 1
61 0 m 1
 61 655 l 1
 205 655 l 1
 205 129 l 1
 553 129 l 1
 553 655 l 1
 696 655 l 1
 696 0 l 1
 61 0 l 1
EndSplineSet
Validated: 1
EndChar

StartChar: Yacute
Encoding: 221 221 155
Width: 757
VWidth: 819
Flags: W
HStem: 0 21G<298 460> 635 20G<61 188.718 568.376 696>
VStem: 298 162<0 322>
LayerCount: 2
Fore
SplineSet
230 659 m 1
 389 819 l 1
 527 819 l 1
 368 659 l 1
 230 659 l 1
379 442 m 1
 588 655 l 1
 696 655 l 1
 696 562 l 1
 460 322 l 1
 460 0 l 1
 298 0 l 1
 298 323 l 1
 61 563 l 1
 61 655 l 1
 169 655 l 1
 379 442 l 1
EndSplineSet
Validated: 1
EndChar

StartChar: Thorn
Encoding: 222 222 156
Width: 757
VWidth: 819
Flags: W
HStem: 0 21G<61 207> 123 129<207 558> 404 130<207 558> 635 20G<61 207>
VStem: 61 146<0 123 252 404 534 655> 558 138<252 404>
LayerCount: 2
Fore
SplineSet
696 123 m 1
 207 123 l 1
 207 0 l 1
 61 0 l 1
 61 655 l 1
 207 655 l 1
 207 534 l 1
 696 534 l 1
 696 123 l 1
207 404 m 1
 207 252 l 1
 558 252 l 1
 558 404 l 1
 207 404 l 1
EndSplineSet
Validated: 1
EndChar

StartChar: germandbls
Encoding: 223 223 157
Width: 757
VWidth: 819
Flags: W
HStem: 0 129<262 558> 266 129<317 442> 532 123<209 442>
VStem: 61 148<0 532> 442 148<395 532> 558 138<129 266>
LayerCount: 2
Fore
SplineSet
442 395 m 1xf8
 442 532 l 1
 209 532 l 1
 209 0 l 1
 61 0 l 1
 61 655 l 1
 590 655 l 1
 590 395 l 1xf8
 696 395 l 1
 696 0 l 1
 262 0 l 1
 262 129 l 1
 558 129 l 1
 558 266 l 1xf4
 317 266 l 1
 317 395 l 1
 442 395 l 1xf8
EndSplineSet
Validated: 1
EndChar

StartChar: agrave
Encoding: 224 224 158
Width: 596
VWidth: 819
Flags: HW
LayerCount: 2
Fore
SplineSet
309 503 m 1
 156 655 l 1
 283 655 l 1
 437 503 l 1
 309 503 l 1
183 655 m 1025
188 196 m 1
 188 121 l 1
 408 121 l 1
 408 196 l 1
 188 196 l 1
50 316 m 1
 408 316 l 1
 408 379 l 1
 50 379 l 1
 50 500 l 1
 546 500 l 1
 546 0 l 1
 50 0 l 1
 50 316 l 1
EndSplineSet
Validated: 1
EndChar

StartChar: aacute
Encoding: 225 225 159
Width: 596
VWidth: 819
Flags: HW
LayerCount: 2
Fore
SplineSet
158 503 m 1
 310 655 l 1
 438 655 l 1
 285 503 l 1
 158 503 l 1
186 526 m 1025
188 196 m 1
 188 121 l 1
 408 121 l 1
 408 196 l 1
 188 196 l 1
50 316 m 1
 408 316 l 1
 408 379 l 1
 50 379 l 1
 50 500 l 1
 546 500 l 1
 546 0 l 1
 50 0 l 1
 50 316 l 1
EndSplineSet
Validated: 1
EndChar

StartChar: acircumflex
Encoding: 226 226 160
Width: 596
VWidth: 816
Flags: HW
LayerCount: 2
Fore
SplineSet
404 579 m 5
 404 527 l 5
 350 527 l 5
 298 578 l 5
 251 527 l 5
 194 527 l 5
 194 580 l 5
 263 655 l 5
 336 655 l 5
 404 579 l 5
188 196 m 1
 188 121 l 1
 408 121 l 1
 408 196 l 1
 188 196 l 1
50 316 m 1
 408 316 l 1
 408 379 l 1
 50 379 l 1
 50 500 l 1
 546 500 l 1
 546 0 l 1
 50 0 l 1
 50 316 l 1
EndSplineSet
Validated: 1
EndChar

StartChar: atilde
Encoding: 227 227 161
Width: 596
VWidth: 816
Flags: HW
LayerCount: 2
Fore
SplineSet
332 597 m 1
 350 597 l 1
 350 616 350 636 350 655 c 1
 419 655 l 1
 419 535 l 1
 263 535 l 1
 263 555 263 574 263 594 c 1
 247 594 l 1
 247 574 247 555 247 535 c 1
 179 535 l 1
 179 655 l 1
 332 655 l 1
 332 636 332 616 332 597 c 1
188 196 m 1
 188 121 l 1
 408 121 l 1
 408 196 l 1
 188 196 l 1
50 316 m 1
 408 316 l 1
 408 379 l 1
 50 379 l 1
 50 500 l 1
 546 500 l 1
 546 0 l 1
 50 0 l 1
 50 316 l 1
EndSplineSet
Validated: 1
EndChar

StartChar: adieresis
Encoding: 228 228 162
Width: 596
VWidth: 816
Flags: HW
LayerCount: 2
Fore
SplineSet
330 542 m 1
 330 655 l 1
 460 655 l 1
 460 542 l 1
 330 542 l 1
343 655 m 1025
136 542 m 1
 136 655 l 1
 266 655 l 1
 266 542 l 1
 136 542 l 1
148 655 m 1025
188 196 m 1
 188 121 l 1
 408 121 l 1
 408 196 l 1
 188 196 l 1
50 316 m 1
 408 316 l 1
 408 379 l 1
 50 379 l 1
 50 500 l 1
 546 500 l 1
 546 0 l 1
 50 0 l 1
 50 316 l 1
EndSplineSet
Validated: 1
EndChar

StartChar: aring
Encoding: 229 229 163
Width: 596
VWidth: 819
Flags: HW
LayerCount: 2
Fore
SplineSet
188 196 m 1
 188 121 l 1
 408 121 l 1
 408 196 l 1
 188 196 l 1
50 316 m 1
 408 316 l 1
 408 379 l 1
 50 379 l 1
 50 500 l 1
 546 500 l 1
 546 0 l 1
 50 0 l 1
 50 316 l 1
236 529 m 1
 236 655 l 1
 360 655 l 1
 360 529 l 1
 236 529 l 1
303 581 m 1
 303 603 l 1
 292 603 l 1
 292 581 l 1
 303 581 l 1
EndSplineSet
Validated: 1
EndChar

StartChar: ae
Encoding: 230 230 164
Width: 932
VWidth: 819
Flags: HW
LayerCount: 2
Fore
SplineSet
744 304 m 1
 744 379 l 1
 537 379 l 1
 537 304 l 1
 744 304 l 1
50 500 m 1
 882 500 l 1
 882 184 l 1
 537 184 l 1
 537 121 l 1
 882 121 l 1
 882 0 l 1
 50 0 l 1
 50 316 l 1
 395 316 l 1
 395 379 l 1
 50 379 l 1
 50 500 l 1
188 196 m 1
 188 121 l 1
 395 121 l 1
 395 196 l 1
 188 196 l 1
EndSplineSet
Validated: 1
EndChar

StartChar: ccedilla
Encoding: 231 231 165
Width: 596
VWidth: 819
Flags: HW
LayerCount: 2
Fore
SplineSet
306 -102 m 1
 306 -69 l 1
 207 -69 l 1
 207 0 l 1
 50 0 l 1
 50 500 l 1
 546 500 l 1
 546 379 l 1
 188 379 l 1
 188 121 l 1
 546 121 l 1
 546 0 l 1
 277 0 l 1
 277 -7 l 1
 381 -7 l 1
 381 -164 l 1
 207 -164 l 1
 207 -102 l 1
 306 -102 l 1
EndSplineSet
Validated: 1
EndChar

StartChar: egrave
Encoding: 232 232 166
Width: 586
VWidth: 819
Flags: HW
LayerCount: 2
Fore
SplineSet
309 503 m 1
 156 655 l 1
 283 655 l 1
 437 503 l 1
 309 503 l 1
183 655 m 1025
408 304 m 1
 408 379 l 1
 188 379 l 1
 188 304 l 1
 408 304 l 1
546 184 m 1
 188 184 l 1
 188 121 l 1
 546 121 l 1
 546 0 l 1
 50 0 l 1
 50 500 l 1
 546 500 l 1
 546 184 l 1
EndSplineSet
Validated: 1
EndChar

StartChar: eacute
Encoding: 233 233 167
Width: 586
VWidth: 819
Flags: HW
LayerCount: 2
Fore
SplineSet
158 503 m 1
 310 655 l 1
 438 655 l 1
 285 503 l 1
 158 503 l 1
186 526 m 1025
408 304 m 1
 408 379 l 1
 188 379 l 1
 188 304 l 1
 408 304 l 1
546 184 m 1
 188 184 l 1
 188 121 l 1
 546 121 l 1
 546 0 l 1
 50 0 l 1
 50 500 l 1
 546 500 l 1
 546 184 l 1
EndSplineSet
Validated: 1
EndChar

StartChar: ecircumflex
Encoding: 234 234 168
Width: 586
VWidth: 818
Flags: HW
LayerCount: 2
Fore
SplineSet
404 579 m 5
 404 527 l 5
 350 527 l 5
 298 578 l 5
 251 527 l 5
 194 527 l 5
 194 580 l 5
 263 655 l 5
 336 655 l 5
 404 579 l 5
408 304 m 1
 408 379 l 1
 188 379 l 1
 188 304 l 1
 408 304 l 1
546 184 m 1
 188 184 l 1
 188 121 l 1
 546 121 l 1
 546 0 l 1
 50 0 l 1
 50 500 l 1
 546 500 l 1
 546 184 l 1
EndSplineSet
Validated: 1
EndChar

StartChar: edieresis
Encoding: 235 235 169
Width: 586
VWidth: 818
Flags: HW
LayerCount: 2
Fore
SplineSet
330 542 m 1
 330 655 l 1
 460 655 l 1
 460 542 l 1
 330 542 l 1
343 655 m 1025
136 542 m 1
 136 655 l 1
 266 655 l 1
 266 542 l 1
 136 542 l 1
148 655 m 1025
408 304 m 1
 408 379 l 1
 188 379 l 1
 188 304 l 1
 408 304 l 1
546 184 m 1
 188 184 l 1
 188 121 l 1
 546 121 l 1
 546 0 l 1
 50 0 l 1
 50 500 l 1
 546 500 l 1
 546 184 l 1
EndSplineSet
Validated: 1
EndChar

StartChar: igrave
Encoding: 236 236 170
Width: 328
VWidth: 819
Flags: HW
LayerCount: 2
Fore
SplineSet
190 503 m 1
 50 655 l 1
 166 655 l 1
 308 503 l 1
 190 503 l 1
76 655 m 1025
248 500 m 1
 248 0 l 1
 111 0 l 1
 111 500 l 1
 248 500 l 1
EndSplineSet
Validated: 1
EndChar

StartChar: iacute
Encoding: 237 237 171
Width: 327
VWidth: 819
Flags: HW
LayerCount: 2
Fore
SplineSet
50 503 m 1
 189 655 l 1
 306 655 l 1
 166 503 l 1
 50 503 l 1
76 526 m 1025
247 500 m 1
 247 0 l 1
 110 0 l 1
 110 500 l 1
 247 500 l 1
EndSplineSet
Validated: 1
EndChar

StartChar: icircumflex
Encoding: 238 238 172
Width: 291
VWidth: 818
Flags: HW
LayerCount: 2
Fore
SplineSet
251 579 m 5
 251 527 l 5
 197 527 l 5
 145 578 l 5
 98 527 l 5
 41 527 l 5
 41 580 l 5
 110 655 l 5
 183 655 l 5
 251 579 l 5
215 500 m 1
 215 0 l 1
 78 0 l 1
 78 500 l 1
 215 500 l 1
EndSplineSet
Validated: 1
EndChar

StartChar: idieresis
Encoding: 239 239 173
Width: 401
VWidth: 818
Flags: HW
LayerCount: 2
Fore
SplineSet
230 542 m 1
 230 655 l 1
 351 655 l 1
 351 542 l 1
 230 542 l 1
242 655 m 1025
50 542 m 1
 50 655 l 1
 171 655 l 1
 171 542 l 1
 50 542 l 1
62 655 m 1025
270 500 m 1
 270 0 l 1
 133 0 l 1
 133 500 l 1
 270 500 l 1
EndSplineSet
Validated: 1
EndChar

StartChar: eth
Encoding: 240 240 174
Width: 596
VWidth: 819
Flags: HW
LayerCount: 2
Fore
SplineSet
188 379 m 1
 188 121 l 1
 408 121 l 1
 408 379 l 1
 188 379 l 1
286 625 m 1
 408 625 l 1
 408 635 408 645 408 655 c 1
 546 655 l 1
 546 0 l 1
 50 0 l 1
 50 500 l 1
 408 500 l 1
 408 504 l 1
 286 504 l 1
 286 625 l 1
EndSplineSet
Validated: 1
EndChar

StartChar: ntilde
Encoding: 241 241 175
Width: 586
VWidth: 818
Flags: HW
LayerCount: 2
Fore
SplineSet
332 597 m 1
 351 597 l 1
 351 616 351 636 351 655 c 1
 419 655 l 1
 419 535 l 1
 263 535 l 1
 263 555 263 574 263 594 c 1
 246 594 l 1
 246 574 246 555 246 535 c 1
 178 535 l 1
 178 655 l 1
 332 655 l 1
 332 636 332 616 332 597 c 1
409 379 m 1
 187 379 l 1
 187 0 l 1
 50 0 l 1
 50 500 l 1
 546 500 l 1
 546 0 l 1
 409 0 l 1
 409 379 l 1
EndSplineSet
Validated: 1
EndChar

StartChar: ograve
Encoding: 242 242 176
Width: 586
VWidth: 819
Flags: HW
LayerCount: 2
Fore
SplineSet
309 503 m 1
 156 655 l 1
 283 655 l 1
 437 503 l 1
 309 503 l 1
183 655 m 1025
408 379 m 1
 188 379 l 1
 188 121 l 1
 408 121 l 1
 408 379 l 1
50 0 m 1
 50 500 l 1
 546 500 l 1
 546 0 l 1
 50 0 l 1
EndSplineSet
Validated: 1
EndChar

StartChar: oacute
Encoding: 243 243 177
Width: 586
VWidth: 819
Flags: HW
LayerCount: 2
Fore
SplineSet
158 503 m 1
 310 655 l 1
 438 655 l 1
 285 503 l 1
 158 503 l 1
186 526 m 1025
408 379 m 1
 188 379 l 1
 188 121 l 1
 408 121 l 1
 408 379 l 1
50 0 m 1
 50 500 l 1
 546 500 l 1
 546 0 l 1
 50 0 l 1
EndSplineSet
Validated: 1
EndChar

StartChar: ocircumflex
Encoding: 244 244 178
Width: 586
VWidth: 816
Flags: HW
LayerCount: 2
Fore
SplineSet
404 579 m 5
 404 527 l 5
 350 527 l 5
 298 578 l 5
 251 527 l 5
 194 527 l 5
 194 580 l 5
 263 655 l 5
 336 655 l 5
 404 579 l 5
408 379 m 1
 188 379 l 1
 188 121 l 1
 408 121 l 1
 408 379 l 1
50 0 m 1
 50 500 l 1
 546 500 l 1
 546 0 l 1
 50 0 l 1
EndSplineSet
Validated: 1
EndChar

StartChar: otilde
Encoding: 245 245 179
Width: 586
VWidth: 816
Flags: HW
LayerCount: 2
Fore
SplineSet
332 597 m 1
 350 597 l 1
 350 616 350 636 350 655 c 1
 419 655 l 1
 419 535 l 1
 263 535 l 1
 263 555 263 574 263 594 c 1
 247 594 l 1
 247 574 247 555 247 535 c 1
 179 535 l 1
 179 655 l 1
 332 655 l 1
 332 636 332 616 332 597 c 1
408 379 m 1
 188 379 l 1
 188 121 l 1
 408 121 l 1
 408 379 l 1
50 0 m 1
 50 500 l 1
 546 500 l 1
 546 0 l 1
 50 0 l 1
EndSplineSet
Validated: 1
EndChar

StartChar: odieresis
Encoding: 246 246 180
Width: 586
VWidth: 816
Flags: HW
LayerCount: 2
Fore
SplineSet
330 542 m 1
 330 655 l 1
 460 655 l 1
 460 542 l 1
 330 542 l 1
343 655 m 1025
136 542 m 1
 136 655 l 1
 266 655 l 1
 266 542 l 1
 136 542 l 1
148 655 m 1025
408 379 m 1
 188 379 l 1
 188 121 l 1
 408 121 l 1
 408 379 l 1
50 0 m 1
 50 500 l 1
 546 500 l 1
 546 0 l 1
 50 0 l 1
EndSplineSet
Validated: 1
EndChar

StartChar: oslash
Encoding: 248 248 181
Width: 596
VWidth: 819
Flags: HW
LayerCount: 2
Fore
SplineSet
291 121 m 1
 408 121 l 1
 408 297 l 1
 291 121 l 1
303 379 m 1
 188 379 l 1
 188 204 l 1
 303 379 l 1
50 0 m 1
 50 500 l 1
 546 500 l 1
 546 0 l 1
 50 0 l 1
EndSplineSet
Validated: 1
EndChar

StartChar: ugrave
Encoding: 249 249 182
Width: 586
VWidth: 836
Flags: HW
LayerCount: 2
Fore
SplineSet
309 503 m 1
 156 655 l 1
 282 655 l 1
 437 503 l 1
 309 503 l 1
182 655 m 1025
187 121 m 1
 409 121 l 1
 409 500 l 1
 546 500 l 1
 546 0 l 1
 50 0 l 1
 50 500 l 1
 187 500 l 1
 187 121 l 1
EndSplineSet
Validated: 1
EndChar

StartChar: uacute
Encoding: 250 250 183
Width: 586
VWidth: 819
Flags: HW
LayerCount: 2
Fore
SplineSet
158 503 m 1
 310 655 l 1
 438 655 l 1
 285 503 l 1
 158 503 l 1
184 526 m 1025
187 121 m 1
 409 121 l 1
 409 500 l 1
 546 500 l 1
 546 0 l 1
 50 0 l 1
 50 500 l 1
 187 500 l 1
 187 121 l 1
EndSplineSet
Validated: 1
EndChar

StartChar: ucircumflex
Encoding: 251 251 184
Width: 586
VWidth: 816
Flags: HW
LayerCount: 2
Fore
SplineSet
404 579 m 5
 404 527 l 5
 350 527 l 5
 298 578 l 5
 251 527 l 5
 194 527 l 5
 194 580 l 5
 263 655 l 5
 336 655 l 5
 404 579 l 5
187 121 m 1
 409 121 l 1
 409 500 l 1
 546 500 l 1
 546 0 l 1
 50 0 l 1
 50 500 l 1
 187 500 l 1
 187 121 l 1
EndSplineSet
Validated: 1
EndChar

StartChar: udieresis
Encoding: 252 252 185
Width: 586
VWidth: 816
Flags: HW
LayerCount: 2
Fore
SplineSet
331 542 m 1
 331 655 l 1
 460 655 l 1
 460 542 l 1
 331 542 l 1
344 655 m 1025
136 542 m 1
 136 655 l 1
 265 655 l 1
 265 542 l 1
 136 542 l 1
148 655 m 1025
187 121 m 1
 409 121 l 1
 409 500 l 1
 546 500 l 1
 546 0 l 1
 50 0 l 1
 50 500 l 1
 187 500 l 1
 187 121 l 1
EndSplineSet
Validated: 1
EndChar

StartChar: yacute
Encoding: 253 253 186
Width: 586
VWidth: 819
Flags: HW
LayerCount: 2
Fore
SplineSet
163 503 m 1
 314 655 l 1
 442 655 l 1
 289 503 l 1
 163 503 l 1
190 526 m 1025
555 500 m 1
 280 -205 l 1
 130 -205 l 1
 209 5 l 1
 40 500 l 1
 180 500 l 1
 295 187 l 1
 425 500 l 1
 555 500 l 1
EndSplineSet
Validated: 1
EndChar

StartChar: thorn
Encoding: 254 254 187
Width: 496
Flags: HW
LayerCount: 2
Fore
SplineSet
496 0 m 1
 140 0 l 1
 140 -205 l 1
 0 -205 l 1
 0 654 l 1
 140 654 l 1
 140 500 l 1
 496 500 l 1
 496 0 l 1
140 379 m 1
 140 122 l 1
 365 122 l 1
 365 379 l 1
 140 379 l 1
EndSplineSet
Validated: 1
EndChar

StartChar: ydieresis
Encoding: 255 255 188
Width: 586
VWidth: 816
Flags: HW
LayerCount: 2
Fore
SplineSet
335 542 m 1
 335 655 l 1
 464 655 l 1
 464 542 l 1
 335 542 l 1
348 655 m 1025
140 542 m 1
 140 655 l 1
 270 655 l 1
 270 542 l 1
 140 542 l 1
152 655 m 1025
555 500 m 1
 280 -205 l 1
 130 -205 l 1
 209 5 l 1
 40 500 l 1
 180 500 l 1
 295 187 l 1
 425 500 l 1
 555 500 l 1
EndSplineSet
Validated: 1
EndChar

StartChar: section
Encoding: 167 167 189
Width: 696
VWidth: 819
Flags: W
HStem: -14 129<46 507> 138 129<189 507> 388 129<189 507> 542 129<189 650>
VStem: 46 143<267 388 517 542> 507 143<114 138 267 388>
LayerCount: 2
Fore
SplineSet
507 138 m 1
 46 138 l 1
 46 671 l 1
 650 671 l 1
 650 542 l 1
 189 542 l 1
 189 517 l 1
 650 517 l 1
 650 -15 l 1
 46 -14 l 1
 46 115 l 1
 507 114 l 1
 507 138 l 1
507 388 m 1
 189 388 l 1
 189 267 l 1
 507 267 l 1
 507 388 l 1
EndSplineSet
Validated: 1
EndChar

